<svg xmlns="http://www.w3.org/2000/svg" viewBox="0 0 1024 1024" width="1024" height="1024" xmlns:c2pa="http://c2pa.org/manifest"><metadata><c2pa:manifest>AAAWgmp1bWIAAAAeanVtZGMycGEAEQAQgAAAqgA4m3EDYzJwYQAAABZcanVtYgAAAEdqdW1kYzJtYQARABCAAACqADibcQN1cm46YzJwYTo5ZTJhNzNhNC1iMzI0LTRmOTAtYTVkMS1iMDE0MTIyZmM4MWEAAAADl2p1bWIAAAApanVtZGMyYXMAEQAQgAAAqgA4m3EDYzJwYS5hc3NlcnRpb25zAAAAALxqdW1iAAAARGp1bWRjYm9yABEAEIAAAKoAOJtxE2MycGEuaW5ncmVkaWVudC52MwAAAAAYYzJzaClmaVecHYJQToUXJ2mjyEkAAABwY2JvcqNpZGM6Zm9ybWF0bWltYWdlL3N2Zyt4bWxqaW5zdGFuY2VJRHgseG1wOmlpZDo5ZDQ3MGQ4Yy04OWE1LTQ3YTUtYjVhYy0wOTZlOTVjNTBhNTlscmVsYXRpb25zaGlwaHBhcmVudE9mAAAB4mp1bWIAAABBanVtZGNib3IAEQAQgAAAqgA4m3ETYzJwYS5hY3Rpb25zLnYyAAAAABhjMnNoHituPzJfqmTBgF+ZwFUaiQAAAZljYm9yomdhY3Rpb25zgqJmYWN0aW9ua2MycGEub3BlbmVkanBhcmFtZXRlcnOha2luZ3JlZGllbnRzgaJjdXJseC1zZWxmI2p1bWJmPWMycGEuYXNzZXJ0aW9ucy9jMnBhLmluZ3JlZGllbnQudjNkaGFzaFgg27AgDX9x35NytdYqmEAgo7+cqu5uiv5cjO6dNbWE9nKkZmFjdGlvbngdY29tLmFudGhyb3BpYy5jbGF1ZGUucHJvdmlkZWRqcGFyYW1ldGVyc6F4H2NvbS5hbnRocm9waWMub3JpZ2luLWNvbmZpZGVuY2VndW5rbm93bmtkZXNjcmlwdGlvbnhmQ2xhdWRlIHByb3ZpZGVkIHRoaXMgZmlsZSBhdCB0aGUgcmVxdWVzdCBvZiBhIHVzZXIgYW5kIG1heSBoYXZlIGNyZWF0ZWQgb3IgbW9kaWZpZWQgdGhlIGZpbGUgY29udGVudHMubXNvZnR3YXJlQWdlbnShZG5hbWVmQ2xhdWRlcmFsbEFjdGlvbnNJbmNsdWRlZPUAAADIanVtYgAAAEBqdW1kY2JvcgARABCAAACqADibcRNjMnBhLmhhc2guZGF0YQAAAAAYYzJzaGFrPa+4Pbq3bH+FcV9H84sAAACAY2JvcqVjYWxnZnNoYTI1NmNwYWRNAAAAAAAAAAAAAAAAAGRoYXNoWCCbuwjKDtJtfOTmfYMejt6a2brbXZcmFH2kOk8ylurtEmRuYW1lbmp1bWJmIG1hbmlmZXN0amV4Y2x1c2lvbnOBomVzdGFydBiaZmxlbmd0aBkeBAAAAj5qdW1iAAAAJ2p1bWRjMmNsABEAEIAAAKoAOJtxA2MycGEuY2xhaW0udjIAAAACD2Nib3KlY2FsZ2ZzaGEyNTZpc2lnbmF0dXJleE1zZWxmI2p1bWJmPS9jMnBhL3VybjpjMnBhOjllMmE3M2E0LWIzMjQtNGY5MC1hNWQxLWIwMTQxMjJmYzgxYS9jMnBhLnNpZ25hdHVyZWppbnN0YW5jZUlEeCx4bXA6aWlkOmVhNTE0Y2U4LWQ2YjYtNDRkYS04YjgwLTAyMmUwMWI0NWYzNHJjcmVhdGVkX2Fzc2VydGlvbnODomN1cmx4LXNlbGYjanVtYmY9YzJwYS5hc3NlcnRpb25zL2MycGEuaW5ncmVkaWVudC52M2RoYXNoWCDbsCANf3Hfk3K11iqYQCCjv5yq7m6K/lyM7p01tYT2cqJjdXJseCpzZWxmI2p1bWJmPWMycGEuYXNzZXJ0aW9ucy9jMnBhLmFjdGlvbnMudjJkaGFzaFggfDph9zy0xnNxvFWIlkaqoXlcBfYjvGbpe3OIooJLwieiY3VybHgpc2VsZiNqdW1iZj1jMnBhLmFzc2VydGlvbnMvYzJwYS5oYXNoLmRhdGFkaGFzaFggK8Io0xF2Rm1ZqppUtGHF56zKLx5aqAjBgguW6ylukBB0Y2xhaW1fZ2VuZXJhdG9yX2luZm+jZG5hbWVvQW50aHJvcGljIEZpbGVzZ3ZlcnNpb25lMS4wLjBrc3BlY1ZlcnNpb25lMi40LjAAABA4anVtYgAAAChqdW1kYzJjcwARABCAAACqADibcQNjMnBhLnNpZ25hdHVyZQAAABAIY2JvctKEWQISogEmGCFZAgowggIGMIIBjaADAgECAhRA5aAK7sI50L64g/oGQgU9Z1UTADAKBggqhkjOPQQDAzBJMRcwFQYDVQQKEw5BbnRocm9waWMsIFBCQzEuMCwGA1UEAxMlQW50aHJvcGljIENvbnRlbnQgQ3JlZGVudGlhbHMgUm9vdCBDQTAeFw0yNjA4MDcxODQzNTZaFw0yODA4MDYxOTQzNTZaMEQxFzAVBgNVBAoTDkFudGhyb3BpYywgUEJDMSkwJwYDVQQDEyBBbnRocm9waWMgQ2xhdWRlIENvbnRlbnQgU2lnbmluZzBZMBMGByqGSM49AgEGCCqGSM49AwEHA0IABJh6CmvLUBgFFNU0vUKlOVtE6djd17L5SuwX0LemFisBM3dkd/3cyjxFA3Qo5S46fX0/ihY0VZ7mfb9KF703t5OjWDBWMA4GA1UdDwEB/wQEAwIHgDAVBgNVHSUEDjAMBgorBgEEAYPoXgIBMAwGA1UdEwEB/wQCMAAwHwYDVR0jBBgwFoAUzlHiBIFOZFsj+OPEz5o+nMHXXMIwCgYIKoZIzj0EAwMDZwAwZAIwMXMdFJ4BetLLVY7ORuE9noqbbAZOZn/aArXyTwFAZfKrPzxF2vPoJNf1+UCdg1XGAjBwX1zd9WGqYkqmL5SFqw1QySjr1zJfpJM9+1rdDwSPLMOPOjKuiXjoU/pUUeG9RwmhY3BhZFkNngAAAAAAAAAAAAAAAAAAAAAAAAAAAAAAAAAAAAAAAAAAAAAAAAAAAAAAAAAAAAAAAAAAAAAAAAAAAAAAAAAAAAAAAAAAAAAAAAAAAAAAAAAAAAAAAAAAAAAAAAAAAAAAAAAAAAAAAAAAAAAAAAAAAAAAAAAAAAAAAAAAAAAAAAAAAAAAAAAAAAAAAAAAAAAAAAAAAAAAAAAAAAAAAAAAAAAAAAAAAAAAAAAAAAAAAAAAAAAAAAAAAAAAAAAAAAAAAAAAAAAAAAAAAAAAAAAAAAAAAAAAAAAAAAAAAAAAAAAAAAAAAAAAAAAAAAAAAAAAAAAAAAAAAAAAAAAAAAAAAAAAAAAAAAAAAAAAAAAAAAAAAAAAAAAAAAAAAAAAAAAAAAAAAAAAAAAAAAAAAAAAAAAAAAAAAAAAAAAAAAAAAAAAAAAAAAAAAAAAAAAAAAAAAAAAAAAAAAAAAAAAAAAAAAAAAAAAAAAAAAAAAAAAAAAAAAAAAAAAAAAAAAAAAAAAAAAAAAAAAAAAAAAAAAAAAAAAAAAAAAAAAAAAAAAAAAAAAAAAAAAAAAAAAAAAAAAAAAAAAAAAAAAAAAAAAAAAAAAAAAAAAAAAAAAAAAAAAAAAAAAAAAAAAAAAAAAAAAAAAAAAAAAAAAAAAAAAAAAAAAAAAAAAAAAAAAAAAAAAAAAAAAAAAAAAAAAAAAAAAAAAAAAAAAAAAAAAAAAAAAAAAAAAAAAAAAAAAAAAAAAAAAAAAAAAAAAAAAAAAAAAAAAAAAAAAAAAAAAAAAAAAAAAAAAAAAAAAAAAAAAAAAAAAAAAAAAAAAAAAAAAAAAAAAAAAAAAAAAAAAAAAAAAAAAAAAAAAAAAAAAAAAAAAAAAAAAAAAAAAAAAAAAAAAAAAAAAAAAAAAAAAAAAAAAAAAAAAAAAAAAAAAAAAAAAAAAAAAAAAAAAAAAAAAAAAAAAAAAAAAAAAAAAAAAAAAAAAAAAAAAAAAAAAAAAAAAAAAAAAAAAAAAAAAAAAAAAAAAAAAAAAAAAAAAAAAAAAAAAAAAAAAAAAAAAAAAAAAAAAAAAAAAAAAAAAAAAAAAAAAAAAAAAAAAAAAAAAAAAAAAAAAAAAAAAAAAAAAAAAAAAAAAAAAAAAAAAAAAAAAAAAAAAAAAAAAAAAAAAAAAAAAAAAAAAAAAAAAAAAAAAAAAAAAAAAAAAAAAAAAAAAAAAAAAAAAAAAAAAAAAAAAAAAAAAAAAAAAAAAAAAAAAAAAAAAAAAAAAAAAAAAAAAAAAAAAAAAAAAAAAAAAAAAAAAAAAAAAAAAAAAAAAAAAAAAAAAAAAAAAAAAAAAAAAAAAAAAAAAAAAAAAAAAAAAAAAAAAAAAAAAAAAAAAAAAAAAAAAAAAAAAAAAAAAAAAAAAAAAAAAAAAAAAAAAAAAAAAAAAAAAAAAAAAAAAAAAAAAAAAAAAAAAAAAAAAAAAAAAAAAAAAAAAAAAAAAAAAAAAAAAAAAAAAAAAAAAAAAAAAAAAAAAAAAAAAAAAAAAAAAAAAAAAAAAAAAAAAAAAAAAAAAAAAAAAAAAAAAAAAAAAAAAAAAAAAAAAAAAAAAAAAAAAAAAAAAAAAAAAAAAAAAAAAAAAAAAAAAAAAAAAAAAAAAAAAAAAAAAAAAAAAAAAAAAAAAAAAAAAAAAAAAAAAAAAAAAAAAAAAAAAAAAAAAAAAAAAAAAAAAAAAAAAAAAAAAAAAAAAAAAAAAAAAAAAAAAAAAAAAAAAAAAAAAAAAAAAAAAAAAAAAAAAAAAAAAAAAAAAAAAAAAAAAAAAAAAAAAAAAAAAAAAAAAAAAAAAAAAAAAAAAAAAAAAAAAAAAAAAAAAAAAAAAAAAAAAAAAAAAAAAAAAAAAAAAAAAAAAAAAAAAAAAAAAAAAAAAAAAAAAAAAAAAAAAAAAAAAAAAAAAAAAAAAAAAAAAAAAAAAAAAAAAAAAAAAAAAAAAAAAAAAAAAAAAAAAAAAAAAAAAAAAAAAAAAAAAAAAAAAAAAAAAAAAAAAAAAAAAAAAAAAAAAAAAAAAAAAAAAAAAAAAAAAAAAAAAAAAAAAAAAAAAAAAAAAAAAAAAAAAAAAAAAAAAAAAAAAAAAAAAAAAAAAAAAAAAAAAAAAAAAAAAAAAAAAAAAAAAAAAAAAAAAAAAAAAAAAAAAAAAAAAAAAAAAAAAAAAAAAAAAAAAAAAAAAAAAAAAAAAAAAAAAAAAAAAAAAAAAAAAAAAAAAAAAAAAAAAAAAAAAAAAAAAAAAAAAAAAAAAAAAAAAAAAAAAAAAAAAAAAAAAAAAAAAAAAAAAAAAAAAAAAAAAAAAAAAAAAAAAAAAAAAAAAAAAAAAAAAAAAAAAAAAAAAAAAAAAAAAAAAAAAAAAAAAAAAAAAAAAAAAAAAAAAAAAAAAAAAAAAAAAAAAAAAAAAAAAAAAAAAAAAAAAAAAAAAAAAAAAAAAAAAAAAAAAAAAAAAAAAAAAAAAAAAAAAAAAAAAAAAAAAAAAAAAAAAAAAAAAAAAAAAAAAAAAAAAAAAAAAAAAAAAAAAAAAAAAAAAAAAAAAAAAAAAAAAAAAAAAAAAAAAAAAAAAAAAAAAAAAAAAAAAAAAAAAAAAAAAAAAAAAAAAAAAAAAAAAAAAAAAAAAAAAAAAAAAAAAAAAAAAAAAAAAAAAAAAAAAAAAAAAAAAAAAAAAAAAAAAAAAAAAAAAAAAAAAAAAAAAAAAAAAAAAAAAAAAAAAAAAAAAAAAAAAAAAAAAAAAAAAAAAAAAAAAAAAAAAAAAAAAAAAAAAAAAAAAAAAAAAAAAAAAAAAAAAAAAAAAAAAAAAAAAAAAAAAAAAAAAAAAAAAAAAAAAAAAAAAAAAAAAAAAAAAAAAAAAAAAAAAAAAAAAAAAAAAAAAAAAAAAAAAAAAAAAAAAAAAAAAAAAAAAAAAAAAAAAAAAAAAAAAAAAAAAAAAAAAAAAAAAAAAAAAAAAAAAAAAAAAAAAAAAAAAAAAAAAAAAAAAAAAAAAAAAAAAAAAAAAAAAAAAAAAAAAAAAAAAAAAAAAAAAAAAAAAAAAAAAAAAAAAAAAAAAAAAAAAAAAAAAAAAAAAAAAAAAAAAAAAAAAAAAAAAAAAAAAAAAAAAAAAAAAAAAAAAAAAAAAAAAAAAAAAAAAAAAAAAAAAAAAAAAAAAAAAAAAAAAAAAAAAAAAAAAAAAAAAAAAAAAAAAAAAAAAAAAAAAAAAAAAAAAAAAAAAAAAAAAAAAAAAAAAAAAAAAAAAAAAAAAAAAAAAAAAAAAAAAAAAAAAAAAAAAAAAAAAAAAAAAAAAAAAAAAAAAAAAAAAAAAAAAAAAAAAAAAAAAAAAAAAAAAAAAAAAAAAAAAAAAAAAAAAAAAAAAAAAAAAAAAAAAAAAAAAAAAAAAAAAAAAAAAAAAAAAAAAAAAAAAAAAAAAAAAAAAAAAAAAAAAAAAAAAAAAAAAAAAAAAAAAAAAAAAAAAAAAAAAAAAAAAAAAAAAAAAAAAAAAAAAAAAAAAAAAAAAAAAAAAAAAAAAAAAAAAAAAAAAAAAAAAAAAAAAAAAAAAAAAAAAAAAAAAAAAAAAAAAAAAAAAAAAAAAAAAAAAAAAAAAAAAAAAAAAAAAAAAAAAAAAAAAAAAAAAAAAAAAAAAAAAAAAAAAAAAAAAAAAAAAAAAAAAAAAAAAAAAAAAAAAAAAAAAAAAAAAAAAAAAAAAAAAAAAAAAAAAAAAAAAAAAAAAAAAAAAAAAAAAAAAAAAAAAAAAAAAAAAAAAAAAAAAAAAAAAAAAAAAAAAAAAAAAAAAAAAAAAAAAAAAAAAAAAAAAAAAAAAAAAAAAAAAAAAAAAAAAAAAAAAAAAAAAAAAAAAAAAAAAAAAAAAAAAAAAAAAAAAAAAAAAAAAAAAAAAAAAAAAAAAAAAAAAAAAAAAAAAAAAAAAAAAAAAAAAAAAAAAAAAAAAAAAAAAAAAAAAAAAAAAAAAAAAAAAAAAAAAAAAAAAAAAAAAAAAAAAAAAAAAAAAAAAAAAAAAAAAAAAAAAAAAAAAAAAAAAAAAAAAAAAAAAAAAAAAAAAAAAAAAAAAAAAAAAAAAAAAAAAAAAAAAAAAAAAAAAAAAAAAAAAAAAAAAAAAAAAAAAAAAAAAAAAAAAAAAAAAAAAAAAAAAAAAAAAAAAAAAAAAAAAAAAAAAAAAAAAAAAAAAAAAAAAAAAAAAAAAAAAAAAAAAAAAAAAAAAAAAAAAAAAAAAAAAAAAAAAAAAAAAAAAAAAAAAAAAAAAAAAAAAAAAAAAAAAAAAAAAAAAAAAAAAAAAAAAAAAAAAAAAAAAAAAAAAAAAAAAAAAAAAAAAAAAAAAAAAAAAAAAAAAAAAAAAAAAAAAAAAAAAAAAAAAAAAAAAAAAAAAAAAAAAAAAAAAAAAAAAAAAAAAAAAAAAAAAAAAAAAAAAAAAAAAAAAAAAAAAAAAAAAAAAAAAAAAAAAAAAAAAAAAAAAAAAAAAAAAAAAAAAAAAAAAAAAAAAAAAAAAAAAAAAAAAAAAAAAAAAAAAAAAAAAAAAAAAAAAAAAAAAAAAAAAAAAAAAAAAAAAAAAAAAAAAAAAAAAAAAAAAAAAAAAAAAAAAAAAAAAAAAAAAAAAAAAAAAAAAAAAAAAAAAAAAAAAAAAAAAAAAAAAAAAAAAAAAAAAAAAAAAAAAPZYQNjI7nx9b5Mg1wb0Te7wunhRbCImdq3r4hQiJa8IATXgJKM3fGdPjgqqzvT4VjgUqF+UspwKJaqmQBAYRFv3AaQ=</c2pa:manifest></metadata>

<g id="riot__background"></g>
<g id="riot__environment"><path d="M268 902A250 18 0 1 1 768 902A250 18 0 1 1 268 902Z" fill="#14101F"></path></g>
<g id="riot__body"><g id="riot__body__flame-hair__flame-1"><path d="M370 530C370 450 446 426 464 370C476 434 490 474 490 530Z" fill="#E8231A"></path><path d="M376 536C376 456 452 432 470 376C482 440 496 480 496 536Z" fill="none" stroke="#14101F" stroke-width="20" stroke-linejoin="round" stroke-linecap="round"></path></g><g id="riot__body__flame-hair__flame-3"><path d="M560 530C560 460 628.5 439 645 390C656 446 670 481 670 530Z" fill="#E8231A"></path><path d="M566 536C566 466 634.5 445 651 396C662 452 676 487 676 536Z" fill="none" stroke="#14101F" stroke-width="20" stroke-linejoin="round" stroke-linecap="round"></path></g><g id="riot__body__flame-hair__flame-2"><path d="M457 430C457 320 549.5 287 569 210C582 298 587 353 587 430Z" fill="#FFD000"></path><path d="M463 436C463 326 555.5 293 575 216C588 304 593 359 593 436Z" fill="none" stroke="#14101F" stroke-width="20" stroke-linejoin="round" stroke-linecap="round"></path></g><g id="riot__body__torso"><path d="M302 720C302 560 430 470 530 396C600 470 722 560 722 720A210 176 0 0 1 302 720Z" fill="#E8231A"></path><path d="M308 726C308 566 436 476 536 402C606 476 728 566 728 726A210 176 0 0 1 308 726Z" fill="none" stroke="#14101F" stroke-width="20" stroke-linejoin="round" stroke-linecap="round"></path></g><g id="riot__body__detail"><path d="M378.5 780A9 9 0 1 1 396.5 780A9 9 0 1 1 378.5 780Z" fill="#00D7F0"></path><path d="M470.5 846A9 9 0 1 1 488.5 846A9 9 0 1 1 470.5 846Z" fill="#00D7F0"></path><path d="M602.5 850A9 9 0 1 1 620.5 850A9 9 0 1 1 602.5 850Z" fill="#00D7F0"></path><path d="M694.5 776A9 9 0 1 1 712.5 776A9 9 0 1 1 694.5 776Z" fill="#00D7F0"></path><path d="M658.5 640A9 9 0 1 1 676.5 640A9 9 0 1 1 658.5 640Z" fill="#00D7F0"></path></g></g>
<g id="riot__face"><g id="riot__face__eye-l"><path d="M595 516A17 24 0 1 1 629 516A17 24 0 1 1 595 516Z" fill="#FFF6E0"></path><path d="M601 522A17 24 0 1 1 635 522A17 24 0 1 1 601 522Z" fill="none" stroke="#14101F" stroke-width="20" stroke-linejoin="round" stroke-linecap="round"></path><path d="M606 518A7.5 11 0 1 1 621 518A7.5 11 0 1 1 606 518Z" fill="#14101F"></path></g><g id="riot__face__eye-r"><path d="M462 516A36 36 0 1 1 534 516A36 36 0 1 1 462 516Z" fill="#FFF6E0"></path><path d="M468 522A36 36 0 1 1 540 522A36 36 0 1 1 468 522Z" fill="none" stroke="#14101F" stroke-width="20" stroke-linejoin="round" stroke-linecap="round"></path><path d="M487.5 518A15 15 0 1 1 517.5 518A15 15 0 1 1 487.5 518Z" fill="#14101F"></path></g><g id="riot__face__lid-l"><g id="riot__face__lid-l--open"><path d="M589.5 492L589.5 482L634.5 482L634.5 492Z" fill="#E8231A"></path><path d="M595 492L629 492" fill="none" stroke="#14101F" stroke-width="20" stroke-linejoin="round" stroke-linecap="round"></path></g><g id="riot__face__lid-l--half" display="none"><path d="M589.5 516L589.5 482L634.5 482L634.5 516Z" fill="#E8231A"></path><path d="M595 516L629 516" fill="none" stroke="#14101F" stroke-width="20" stroke-linejoin="round" stroke-linecap="round"></path></g><g id="riot__face__lid-l--closed" display="none"><path d="M589.5 546L589.5 482L634.5 482L634.5 546Z" fill="#E8231A"></path><path d="M595 516Q612 533 629 516" fill="none" stroke="#14101F" stroke-width="20" stroke-linejoin="round" stroke-linecap="round"></path></g></g><g id="riot__face__lid-r"><g id="riot__face__lid-r--open"><path d="M454 480L454 470L542 470L542 480Z" fill="#E8231A"></path><path d="M462 480L534 480" fill="none" stroke="#14101F" stroke-width="20" stroke-linejoin="round" stroke-linecap="round"></path></g><g id="riot__face__lid-r--half" display="none"><path d="M454 516L454 470L542 470L542 516Z" fill="#E8231A"></path><path d="M462 516L534 516" fill="none" stroke="#14101F" stroke-width="20" stroke-linejoin="round" stroke-linecap="round"></path></g><g id="riot__face__lid-r--closed" display="none"><path d="M454 558L454 470L542 470L542 558Z" fill="#E8231A"></path><path d="M462 516Q498 541 534 516" fill="none" stroke="#14101F" stroke-width="20" stroke-linejoin="round" stroke-linecap="round"></path></g></g><g id="riot__face__brow-l"><g id="riot__face__brow-l--neutral"><path d="M633 470L591 470" fill="none" stroke="#14101F" stroke-width="20" stroke-linejoin="round" stroke-linecap="round"></path></g><g id="riot__face__brow-l--raised" display="none"><path d="M633 452L591 444" fill="none" stroke="#14101F" stroke-width="20" stroke-linejoin="round" stroke-linecap="round"></path></g><g id="riot__face__brow-l--low" display="none"><path d="M633 476L591 488" fill="none" stroke="#14101F" stroke-width="20" stroke-linejoin="round" stroke-linecap="round"></path></g><g id="riot__face__brow-l--worried" display="none"><path d="M633 478L591 456" fill="none" stroke="#14101F" stroke-width="20" stroke-linejoin="round" stroke-linecap="round"></path></g></g><g id="riot__face__brow-r"><g id="riot__face__brow-r--neutral"><path d="M456 458L540 458" fill="none" stroke="#14101F" stroke-width="20" stroke-linejoin="round" stroke-linecap="round"></path></g><g id="riot__face__brow-r--raised" display="none"><path d="M456 440L540 432" fill="none" stroke="#14101F" stroke-width="20" stroke-linejoin="round" stroke-linecap="round"></path></g><g id="riot__face__brow-r--low" display="none"><path d="M456 464L540 476" fill="none" stroke="#14101F" stroke-width="20" stroke-linejoin="round" stroke-linecap="round"></path></g><g id="riot__face__brow-r--worried" display="none"><path d="M456 466L540 444" fill="none" stroke="#14101F" stroke-width="20" stroke-linejoin="round" stroke-linecap="round"></path></g></g><g id="riot__face__mouth"><g id="riot__face__mouth--neutral"><path d="M540.5 616Q566 624 591.5 612" fill="none" stroke="#14101F" stroke-width="20" stroke-linejoin="round" stroke-linecap="round"></path></g><g id="riot__face__mouth--smile" display="none"><path d="M528.5 606Q566 656 603.5 602" fill="none" stroke="#14101F" stroke-width="20" stroke-linejoin="round" stroke-linecap="round"></path></g><g id="riot__face__mouth--open" display="none"><path d="M532 606L600 602Q596.5 662 566 662Q533.5 662 532 606Z" fill="#14101F"></path><path d="M554 646A15.5 10 0 1 1 584.5 646A15.5 10 0 1 1 554 646Z" fill="#E8231A"></path></g><g id="riot__face__mouth--chew" display="none"><path d="M537 616L551.5 604L566 618L580.5 604L595 616" fill="none" stroke="#14101F" stroke-width="20" stroke-linejoin="round" stroke-linecap="round"></path></g><g id="riot__face__mouth--o" display="none"><path d="M552.5 624A13.5 22 0 1 1 579.5 624A13.5 22 0 1 1 552.5 624Z" fill="#14101F"></path></g><g id="riot__face__mouth--flat" display="none"><path d="M528.5 618L603.5 614" fill="none" stroke="#14101F" stroke-width="20" stroke-linejoin="round" stroke-linecap="round"></path></g></g></g>
<g id="riot__limbs"><g id="riot__limbs__arm-r"><path d="M336.5 692.5L290 654L277.5 669L323.5 707.5Z" fill="#E8231A"></path><path d="M342.5 698.5L296 660L283.5 675L329.5 713.5Z" fill="none" stroke="#14101F" stroke-width="20" stroke-linejoin="round" stroke-linecap="round"></path></g><g id="riot__limbs__arm-l"><path d="M713 707L799.5 620L785 606L699 693Z" fill="#E8231A"></path><path d="M719 713L805.5 626L791 612L705 699Z" fill="none" stroke="#14101F" stroke-width="20" stroke-linejoin="round" stroke-linecap="round"></path></g><g id="riot__limbs__hand-r"><path d="M248 650A22 22 0 1 1 292 650A22 22 0 1 1 248 650Z" fill="#E8231A"></path><path d="M254 656A22 22 0 1 1 298 656A22 22 0 1 1 254 656Z" fill="none" stroke="#14101F" stroke-width="20" stroke-linejoin="round" stroke-linecap="round"></path></g><g id="riot__limbs__hand-l"><path d="M783 600A22 22 0 1 1 827 600A22 22 0 1 1 783 600Z" fill="#E8231A"></path><path d="M789 606A22 22 0 1 1 833 606A22 22 0 1 1 789 606Z" fill="none" stroke="#14101F" stroke-width="20" stroke-linejoin="round" stroke-linecap="round"></path></g></g>
<g id="riot__props"><g id="riot__props__sachet"><g id="riot__props__sachet__red"><path d="M144 544L292 544L304 552L304 572L144 668Z" fill="#E8231A"></path><path d="M150 550L298 550L310 558L310 578L150 674Z" fill="none" stroke="#14101F" stroke-width="20" stroke-linejoin="round" stroke-linecap="round"></path></g><g id="riot__props__sachet__yellow"><path d="M144 668L304 572L304 734L304 734L300 740L296 734L292 740L288 734L284 740L280 734L276 740L272 734L268 740L264 734L260 740L256 734L252 740L248 734L244 740L240 734L236 740L232 734L228 740L224 734L220 740L216 734L212 740L208 734L204 740L200 734L196 740L192 734L188 740L184 734L180 740L176 734L172 740L168 734L164 740L160 734L156 740L152 734L148 740L144 734L144 734Z" fill="#FFD000"></path><path d="M150 674L310 578L310 740L310 740L306 746L302 740L298 746L294 740L290 746L286 740L282 746L278 740L274 746L270 740L266 746L262 740L258 746L254 740L250 746L246 740L242 746L238 740L234 746L230 740L226 746L222 740L218 746L214 740L210 746L206 740L202 746L198 740L194 746L190 740L186 746L182 740L178 746L174 740L170 746L166 740L162 746L158 740L154 746L150 740L150 740Z" fill="none" stroke="#14101F" stroke-width="20" stroke-linejoin="round" stroke-linecap="round"></path><path d="M227.5 693.5L227.5 692L227 691L227 689.5L227 688L227 687L227.5 686L227.5 684.5L228 683.5L228 682.5L228.5 681.5L229 680.5L229.5 679.5L230 678.5L230.5 678L231.5 677L232 676L233 675L233.5 674.5L234 673.5L234.5 673L235.5 672.5L236 672L237 671.5L237.5 671L238.5 670.5L239 670L240 670L241 669.5L242 669.5L243 669.5L243.5 669L244.5 669L245.5 669.5L246.5 669.5L247.5 669.5L248 670L249 670L250 670.5L250.5 671L251.5 671.5L252 672L253 672.5L253.5 673L254 674L255 674.5L255.5 675L256 676L256 677L256.5 677.5L257 678.5L257 679.5L257.5 680L257.5 681L257.5 682L257.5 683L257.5 684L257.5 684.5L257.5 685.5L257 686.5L257 687.5L256.5 688L256 689L255.5 690L256 689.5L255 690L253 691L251 692L249 693L247 694L245 695L243 696L241 697L239 698L237 699.5L235 700.5L233 701.5L231 702.5L229 703.5L227 704.5L225 705.5L224 706L223.5 707L222.5 708L222.5 709L222 710L222 711.5L222.5 712.5L222.5 713.5L223.5 714.5L224 715.5L225 716L226.5 716.5L227.5 717L228.5 717L229.5 716.5L231 716L233 715L235 714L236.5 713L238.5 712L240.5 710.5L242.5 709.5L244.5 708.5L246.5 707.5L248.5 706.5L250.5 705.5L252.5 704L254.5 703L256.5 702L258.5 701L260.5 700L263.5 698L265 695.5L266 694L266.5 692.5L267.5 691L268 689.5L268.5 688L268.5 686.5L268.5 684.5L269 683L269 681.5L268.5 679.5L268.5 678L268 676.5L267.5 675L267 673.5L266 672L265.5 670.5L264.5 669L263.5 667.5L262.5 666.5L261.5 665L260 664L259 663L257.5 662L256 661L254.5 660.5L253 659.5L251.5 659L250 658.5L248.5 658.5L246.5 658L245 658L243.5 658L242 658L240 658.5L238.5 658.5L237 659L235.5 659.5L234 660L232.5 661L231 662L229.5 662.5L228 663.5L227 665L226 666L224.5 667L224 668.5L223 669.5L222 671L221.5 672L220.5 673.5L220 675L219.5 676.5L219 678L218.5 680L218 681.5L218 683.5L218 685L218 687L218 688.5L218 690.5L218.5 692L219 694L219.5 695.5L220 696.5L220.5 697L221 697.5L221.5 698L222.5 698.5L223 698.5L224 698.5L224.5 698.5L225.5 698L226 698L226.5 697L227 696.5L227.5 696L227.5 695L227.5 694.5ZM226 718L228.5 718L230.5 718L233 718L235.5 718L238 718L240 718L242.5 718L245 718L247 718L249.5 718L252 718L254 718L256.5 718L259 718L261.5 718L263.5 718L265 718L266.5 717.5L267.5 717L268.5 716L269.5 715L270.5 713.5L270.5 712L271 711L270.5 709.5L270.5 708L269.5 707L268.5 705.5L267.5 705L266.5 704L265 703.5L263.5 703.5L261.5 703.5L259 703.5L256.5 703.5L254 703.5L252 703.5L249.5 703.5L247 703.5L245 703.5L242.5 703.5L240 703.5L238 703.5L235.5 703.5L233 703.5L230.5 703.5L228.5 703.5L226 703.5L224.5 703.5L223 704L222 705L221 705.5L220 707L219.5 708L219 709.5L219 711L219 712L219.5 713.5L220 715L221 716L222 717L223 717.5L224.5 718ZM254.5 694A5.5 5.5 0 1 1 265 694A5.5 5.5 0 1 1 254.5 694Z" fill="#14101F"></path></g><g id="riot__props__sachet__tear-strip"><path d="M144 506L148 500L152 506L156 500L160 506L164 500L168 506L172 500L176 506L180 500L184 506L188 500L192 506L196 500L200 506L204 500L208 506L212 500L216 506L220 500L224 506L228 500L232 506L236 500L240 506L244 500L248 506L252 500L256 506L260 500L264 506L268 500L272 506L276 500L280 506L284 500L288 506L292 500L296 506L300 500L304 506L304 536L292 544L144 544Z" fill="#E8231A"></path><path d="M150 512L154 506L158 512L162 506L166 512L170 506L174 512L178 506L182 512L186 506L190 512L194 506L198 512L202 506L206 512L210 506L214 512L218 506L222 512L226 506L230 512L234 506L238 512L242 506L246 512L250 506L254 512L258 506L262 512L266 506L270 512L274 506L278 512L282 506L286 512L290 506L294 512L298 506L302 512L306 506L310 512L310 542L298 550L150 550Z" fill="none" stroke="#14101F" stroke-width="20" stroke-linejoin="round" stroke-linecap="round"></path></g><g id="riot__props__sachet__notch"><path d="M304 536L292 544L304 552" fill="none" stroke="#14101F" stroke-width="20" stroke-linejoin="round" stroke-linecap="round"></path></g></g><g id="riot__props__phone"><path d="M770 450L840 450L840 582L770 582Z" fill="#14101F"></path><path d="M776 456L846 456L846 588L776 588Z" fill="none" stroke="#14101F" stroke-width="20" stroke-linejoin="round" stroke-linecap="round"></path><path d="M780 462L830 462L830 558L780 558Z" fill="#00D7F0"></path></g><g id="riot__props__stickers"><path d="M414 702L424 718L442.5 713.5L438 732L454 742L438 752L442.5 770.5L424 766L414 782L404 766L385.5 770.5L390 752L374 742L390 732L385.5 713.5L404 718Z" fill="#FFD000"></path><path d="M420 708L430 724L448.5 719.5L444 738L460 748L444 758L448.5 776.5L430 772L420 788L410 772L391.5 776.5L396 758L380 748L396 738L391.5 719.5L410 724Z" fill="none" stroke="#14101F" stroke-width="20" stroke-linejoin="round" stroke-linecap="round"></path><path d="M398 746L407 733" fill="none" stroke="#FFF6E0" stroke-opacity="0.6" stroke-width="12" stroke-linecap="round"></path><path d="M642.5 706A22 22 0 1 1 686.5 706A22 22 0 1 1 642.5 706Z" fill="#00D7F0"></path><path d="M654.5 708L659 701.5" fill="none" stroke="#FFF6E0" stroke-opacity="0.6" stroke-width="12" stroke-linecap="round"></path></g><g id="riot__props__chili"><path d="M168 872C190 838 262 838 298 858C290 884 222 892 168 872Z" fill="#E8231A"></path><path d="M174 878C196 844 268 844 304 864C296 890 228 898 174 878Z" fill="none" stroke="#14101F" stroke-width="20" stroke-linejoin="round" stroke-linecap="round"></path><path d="M296 846L320 834L326 846L304 862Z" fill="#B8F200"></path><path d="M302 852L326 840L332 852L310 868Z" fill="none" stroke="#14101F" stroke-width="20" stroke-linejoin="round" stroke-linecap="round"></path></g><g id="riot__props__chili-oil-bottle"><path d="M806 752L832 752L832 792L806 792Z" fill="#14101F"></path><path d="M812 758L838 758L838 798L812 798Z" fill="none" stroke="#14101F" stroke-width="20" stroke-linejoin="round" stroke-linecap="round"></path><path d="M790 790L848 790L848 896L790 896Z" fill="#E8231A"></path><path d="M796 796L854 796L854 902L796 902Z" fill="none" stroke="#14101F" stroke-width="20" stroke-linejoin="round" stroke-linecap="round"></path><path d="M790 820L848 820L848 854L790 854Z" fill="#FFD000"></path><path d="M796 826L854 826L854 860L796 860Z" fill="none" stroke="#14101F" stroke-width="20" stroke-linejoin="round" stroke-linecap="round"></path></g></g>
<g id="riot__noodles-steam"><g id="riot__noodles-steam__steam-1"><path d="M535.5 178L538.5 175L541 171.5L543 168.5L543.5 165.5L543 162L541 159L538.5 155.5L535.5 152.5L532.5 149.5L529.5 146L528 143L527.5 140L528 136.5L529.5 133.5L532.5 130L535.5 127L538.5 124L541 120.5L543 117.5L543.5 114.5L543 111L541 108L538.5 104.5L535.5 101.5" fill="none" stroke="#14101F" stroke-width="20" stroke-linejoin="round" stroke-linecap="round"></path></g><g id="riot__noodles-steam__steam-2"><path d="M566 192L569 188L571.5 183.5L573.5 179.5L574 175L573.5 171L571.5 166.5L569 162.5L566 158L563 154L560.5 149.5L558.5 145.5L558 141L558.5 137L560.5 132.5L563 128.5L566 124L569 120L571.5 115.5L573.5 111.5L574 107L573.5 103L571.5 98.5L569 94.5L566 90" fill="none" stroke="#14101F" stroke-width="20" stroke-linejoin="round" stroke-linecap="round"></path></g><g id="riot__noodles-steam__steam-3"><path d="M596.5 178L599.5 175L602.5 172.5L604 169.5L604.5 166.5L604 164L602.5 161L599.5 158L596.5 155.5L593.5 152.5L591 149.5L589 147L588.5 144L589 141L591 138.5L593.5 135.5L596.5 132.5L599.5 130L602.5 127L604 124L604.5 121.5L604 118.5L602.5 115.5L599.5 113L596.5 110" fill="none" stroke="#14101F" stroke-width="20" stroke-linejoin="round" stroke-linecap="round"></path></g><g id="riot__noodles-steam__noodles"><path d="M577.5 633.5L579 635.5L580 637L580.5 638.5L581 639.5L581.5 639.5L581.5 640L581.5 640L581.5 640L581.5 640L581 641L580.5 642.5L580 644L579.5 646.5L579 649.5L578 652.5L577.5 656.5L578 660.5L578.5 665L579.5 669L581 672.5L582.5 676L584.5 679L586 681.5L587.5 683.5L615.5 664.5L614 662.5L613 661L612.5 659.5L612 658.5L611.5 658.5L611.5 658L611.5 658L611.5 658L611.5 658L612 657L612.5 655.5L613 654L613.5 651.5L614 648.5L615 645.5L615.5 641.5L615 637.5L614.5 633L613.5 629L612 625.5L610.5 622L608.5 619L607 616.5L605.5 614.5Z" fill="#FFD000"></path><path d="M583.5 639.5L585 641.5L586 643L586.5 644.5L587 645.5L587.5 645.5L587.5 646L587.5 646L587.5 646L587.5 646L587 647L586.5 648.5L586 650L585.5 652.5L585 655.5L584 658.5L583.5 662.5L584 666.5L584.5 671L585.5 675L587 678.5L588.5 682L590.5 685L592 687.5L593.5 689.5L621.5 670.5L620 668.5L619 667L618.5 665.5L618 664.5L617.5 664.5L617.5 664L617.5 664L617.5 664L617.5 664L618 663L618.5 661.5L619 660L619.5 657.5L620 654.5L621 651.5L621.5 647.5L621 643.5L620.5 639L619.5 635L618 631.5L616.5 628L614.5 625L613 622.5L611.5 620.5Z" fill="none" stroke="#14101F" stroke-width="20" stroke-linejoin="round" stroke-linecap="round"></path></g></g>
<g id="riot__foreground-type"><g id="riot__foreground-type__two-mark"><path d="M529.5 795L529 793.5L529 792L529 790.5L529 789.5L529 788L529 786.5L529.5 785.5L530 784L530 783L530.5 782L531 781L531.5 780L532 779L533 778L533.5 777L534.5 776L535.5 775L536 774L536.5 773.5L537 772.5L538 772L538.5 771.5L539.5 771L540 770.5L541 770L542 769.5L543 769.5L543.5 769L544.5 769L545.5 769L546.5 769L547.5 769L548.5 769L549 769L550 769L551 769.5L552 770L553 770L553.5 770.5L554.5 771L555 771.5L556 772L556.5 773L557.5 773.5L558 774.5L558.5 775L559 776L559.5 776.5L559.5 777.5L560 778.5L560.5 779L560.5 780L560.5 781L561 782L561 783L561 784L560.5 785L560.5 785.5L560.5 786.5L560 787.5L559.5 788.5L559 789L558.5 790L559.5 789L559 789.5L556.5 790.5L554.5 791.5L552 793L549.5 794L547 795.5L544.5 796.5L542.5 798L540 799L537.5 800.5L535 801.5L532.5 803L530.5 804L528 805.5L525.5 806.5L523 808L521.5 809L520 810.5L519 812L518.5 813.5L518 815.5L518 817.5L518.5 819L519 821L520 822.5L521.5 824L523 825L525 825.5L526.5 826L528.5 826L530.5 825.5L532 825L534.5 823.5L537 822.5L539.5 821L541.5 819.5L544 818.5L546.5 817L549 816L551 814.5L553.5 813L556 812L558 810.5L560.5 809L563 808L565.5 806.5L567.5 805.5L572 803L574.5 799.5L575.5 797.5L576.5 795.5L577 793.5L578 791.5L578.5 789.5L578.5 787.5L579 785L579 783L579 781L579 779L578.5 776.5L578 774.5L577.5 772.5L576.5 770.5L575.5 768.5L574.5 766.5L573.5 765L572.5 763L571 761.5L569.5 760L568 758.5L566 757L564.5 756L562.5 754.5L560.5 754L558.5 753L556.5 752L554.5 751.5L552.5 751L550.5 751L548.5 750.5L546 750.5L544 751L542 751L540 751.5L537.5 752L535.5 752.5L533.5 753.5L531.5 754.5L530 755.5L528 757L526.5 758L525 759.5L523 761L522 762.5L520.5 764L519.5 765.5L519 767L517.5 769L516.5 770.5L516 772.5L515 774.5L514.5 776.5L514 778.5L513.5 781L513 783L513 785.5L513 787.5L513 790L513.5 792L514 794.5L514.5 797L515.5 799L516 800L516.5 801.5L517.5 802.5L519 803L520 804L521.5 804L523 804L524 804L525.5 803.5L526.5 802.5L528 801.5L528.5 800.5L529 799L529.5 798L529.5 796.5ZM525 827.5L528 827.5L531 827.5L534 827.5L536.5 827.5L539.5 827.5L542 827.5L545 827.5L548 827.5L550.5 827.5L553.5 827.5L556.5 827.5L559 827.5L562 827.5L564.5 827.5L567.5 827.5L570.5 827.5L572.5 827L574.5 826.5L576.5 825.5L578 824L579.5 822.5L580.5 820.5L581 818.5L581.5 816.5L581 814L580.5 812L579.5 810.5L578 808.5L576.5 807.5L574.5 806L572.5 805.5L570.5 805.5L567.5 805.5L564.5 805.5L562 805.5L559 805.5L556.5 805.5L553.5 805.5L550.5 805.5L548 805.5L545 805.5L542 805.5L539.5 805.5L536.5 805.5L534 805.5L531 805.5L528 805.5L525 805.5L523 805.5L521 806L519 807.5L517.5 808.5L516 810.5L515 812L514.5 814L514 816.5L514.5 818.5L515 820.5L516 822.5L517.5 824L519 825.5L521 826.5L523 827Z" fill="#14101F"></path><path d="M528 793.5L527.5 792L527.5 790.5L527.5 789L527.5 788L527.5 786.5L528 785L528 784L528.5 783L528.5 781.5L529 780.5L529.5 779.5L530 778.5L531 777.5L531.5 776.5L532 775.5L533 774.5L534 773.5L534.5 772.5L535 772L536 771.5L536.5 770.5L537 770L538 769.5L539 769L539.5 768.5L540.5 768.5L541.5 768L542.5 768L543 767.5L544 767.5L545 767.5L546 767.5L547 767.5L548 767.5L549 768L549.5 768L550.5 768.5L551.5 769L552 769L553 769.5L554 770L554.5 771L555 771.5L556 772L556.5 773L557 773.5L557.5 774.5L558 775L558 776L558.5 777L559 778L559 778.5L559 779.5L559.5 780.5L559.5 781.5L559.5 782.5L559 783.5L559 784L559 785L558.5 786L558 787L558 787.5L557.5 788.5L558 787.5L557.5 788L555 789L553 790L550.5 791.5L548 793L545.5 794L543 795.5L541 796.5L538.5 798L536 799L533.5 800L531 801.5L529 802.5L526.5 804L524 805L521.5 806.5L520 807.5L519 809L517.5 810.5L517 812L516.5 814L516.5 816L517 817.5L517.5 819.5L519 821L520 822.5L521.5 823.5L523.5 824L525 824.5L527 824.5L529 824L531 823.5L533 822L535.5 821L538 819.5L540 818L542.5 817L545 815.5L547.5 814.5L549.5 813L552 811.5L554.5 810.5L557 809L559 808L561.5 806.5L564 805L566 804L570.5 801.5L573 798L574 796L575 794L575.5 792L576.5 790L577 788L577 786L577.5 784L577.5 781.5L577.5 779.5L577.5 777.5L577 775L576.5 773L576 771L575 769L574 767L573 765.5L572 763.5L571 761.5L569.5 760L568 758.5L566.5 757L564.5 755.5L563 754.5L561 753.5L559 752.5L557.5 751.5L555 751L553 750L551 749.5L549 749.5L547 749L544.5 749L542.5 749.5L540.5 749.5L538.5 750L536 750.5L534 751L532 752L530.5 753L528.5 754L526.5 755.5L525 756.5L523.5 758L522 759.5L520.5 761L519 762.5L518.5 764L517.5 765.5L516 767.5L515.5 769L514.5 771L513.5 773L513 775L512.5 777L512 779.5L512 781.5L511.5 784L511.5 786L511.5 788.5L512 790.5L512.5 793L513 795.5L514 797.5L514.5 799L515 800L516 801L517.5 802L518.5 802.5L520 802.5L521.5 802.5L522.5 802.5L524 802L525 801L526.5 800L527 799L527.5 798L528 796.5L528 795ZM524 826L526.5 826L529.5 826L532.5 826L535 826L538 826L540.5 826L543.5 826L546.5 826L549 826L552 826L555 826L557.5 826L560.5 826L563.5 826L566 826L569 826L571 826L573 825L575 824L576.5 823L578 821L579 819L579.5 817L580 815L579.5 813L579 811L578 809L576.5 807L575 806L573 805L571 804L569 804L566 804L563.5 804L560.5 804L557.5 804L555 804L552 804L549 804L546.5 804L543.5 804L540.5 804L538 804L535 804L532.5 804L529.5 804L526.5 804L524 804L521.5 804L519.5 805L517.5 806L516 807L514.5 809L513.5 811L513 813L513 815L513 817L513.5 819L514.5 821L516 823L517.5 824L519.5 825L521.5 826Z" fill="#14101F"></path><path d="M527 794L526.5 792L526.5 790.5L526.5 789.5L526.5 788L526.5 786.5L527 785L527 784L527.5 782.5L528 781.5L528 780.5L528.5 779L529.5 778L530 777L530.5 776L531.5 775L532 774L533 773L534 772L534.5 771.5L535 770.5L536 770L537 769L537.5 769L538.5 768.5L539.5 768L540 767.5L541 767L542 767L543 766.5L544 766.5L545 766.5L546 766.5L547 766.5L548 766.5L549 767L550 767L551 767.5L552 768L552.5 768.5L553.5 769L554.5 769.5L555 770L556 771L556.5 771.5L557 772L558 773L558 774L558.5 775L559 775.5L559.5 776.5L560 777.5L560 778.5L560 779.5L560.5 780.5L560.5 781.5L560.5 782.5L560 783.5L560 784.5L559.5 785.5L559.5 786.5L559 787L558.5 788L558 789L558.5 788.5L558 788.5L555.5 790L553 791L551 792.5L548.5 793.5L546 795L543.5 796L541.5 797.5L539 798.5L536.5 800L534 801L531.5 802.5L529.5 803.5L527 805L524.5 806L522 807.5L520.5 808L519.5 809.5L518.5 811L518 812.5L517.5 814L517.5 816L518 817.5L518.5 819L519.5 820.5L520.5 821.5L522 822.5L523.5 823L525.5 823.5L527 823.5L528.5 823L530.5 822.5L532.5 821.5L535 820L537.5 818.5L540 817.5L542 816L544.5 814.5L547 813.5L549 812L551.5 811L554 809.5L556.5 808L558.5 807L561 805.5L563.5 804.5L566 803L570 801L572 797.5L573 795.5L574 794L575 792L575.5 790L576 788L576 786L576.5 784L576.5 781.5L576.5 779.5L576.5 777.5L576 775.5L575.5 773.5L575 771.5L574 769.5L573.5 767.5L572.5 766L571.5 764L570 762.5L569 760.5L567.5 759L566 757.5L564 756.5L562.5 755L560.5 754L559 753L557 752.5L555 751.5L553 751L551 750.5L549 750.5L546.5 750L544.5 750L542.5 750.5L540.5 750.5L538.5 751L536.5 751.5L534.5 752L532.5 753L530.5 754L529 755L527 756L525.5 757.5L524 758.5L522.5 760L521 762L520 763L519 764.5L518 766L517 768L516 769.5L515.5 771.5L514.5 773.5L514 775.5L513.5 777.5L513 779.5L512.5 781.5L512.5 784L512.5 786L512.5 788.5L513 790.5L513.5 793L514 795L515 797L515.5 798.5L516 799.5L516.5 800L518 801L519 801.5L520 802L521.5 802L522.5 801.5L523.5 801L524.5 800.5L525.5 799.5L526.5 798.5L527 797.5L527 796.5L527 795ZM524 825L526.5 825L529.5 825L532.5 825L535 825L538 825L540.5 825L543.5 825L546.5 825L549 825L552 825L555 825L557.5 825L560.5 825L563.5 825L566 825L569 825L571 825L573 824.5L574.5 823.5L576 822L577.5 820.5L578.5 819L579 817L579 815L579 813L578.5 811L577.5 809.5L576 808L574.5 806.5L573 805.5L571 805L569 805L566 805L563.5 805L560.5 805L557.5 805L555 805L552 805L549 805L546.5 805L543.5 805L540.5 805L538 805L535 805L532.5 805L529.5 805L526.5 805L524 805L522 805L520 805.5L518 806.5L516.5 808L515.5 809.5L514.5 811L514 813L513.5 815L514 817L514.5 819L515.5 820.5L516.5 822L518 823.5L520 824.5L522 825Z" fill="#FFF6E0"></path><path d="M525.5 794.5L525.5 792.5L525 791L525 789.5L525 788L525 786.5L525.5 785L525.5 783.5L526 782.5L526.5 781L527 780L527.5 778.5L528 777.5L528.5 776.5L529.5 775.5L530 774.5L531 773.5L532 772L532.5 771L533.5 770.5L534 769.5L535 769L536 768L537 767.5L537.5 767L538.5 766.5L539.5 766L540.5 766L542 765.5L543 765.5L544 765L545 765L546 765L547 765L548.5 765.5L549.5 765.5L550.5 766L551.5 766L552.5 766.5L553.5 767L554.5 767.5L555 768.5L556 769L557 769.5L557.5 770.5L558.5 771.5L559 772L559.5 773L560 774L560.5 775L561 776L561 777L561.5 778L561.5 779.5L561.5 780.5L561.5 781.5L561.5 782.5L561.5 783.5L561.5 784.5L561 786L561 787L560.5 788L560 789L559.5 790L559.5 789.5L558.5 790L556.5 791L554 792.5L551.5 793.5L549 795L546.5 796L544.5 797.5L542 798.5L539.5 800L537 801L534.5 802.5L532.5 803.5L530 805L527.5 806L525 807.5L523 808.5L521.5 809.5L520.5 810.5L520 811.5L519.5 813L519 814L519 815.5L519.5 817L520 818.5L520.5 819.5L521.5 820.5L523 821.5L524 822L525.5 822L527 822L528 822L529.5 821.5L532 820L534.5 818.5L536.5 817.5L539 816L541.5 815L544 813.5L546 812L548.5 811L551 809.5L553 808.5L555.5 807L558 805.5L560.5 804.5L562.5 803L565 802L569 799.5L571 796.5L572 795L572.5 793L573.5 791.5L574 789.5L574.5 787.5L575 785.5L575 783.5L575 781.5L575 779.5L575 777.5L574.5 775.5L574 774L573.5 772L573 770L572 768L571 766.5L570 765L569 763L567.5 761.5L566.5 760L565 759L563.5 757.5L561.5 756.5L560 755.5L558 754.5L556.5 753.5L554.5 753L552.5 752.5L550.5 752L548.5 751.5L546.5 751.5L544.5 751.5L543 751.5L540.5 752L539 752.5L537 753L535 753.5L533 754L531.5 755L529.5 756L528 757L526.5 758.5L525 760L523.5 761L522 762.5L521 764L520 765.5L519 767L518.5 768.5L517.5 770.5L516.5 772L516 774L515.5 776L515 778L514.5 780L514 782L514 784L514 786L514 788.5L514.5 790.5L515 792.5L515.5 795L516 796.5L516.5 797.5L517 798.5L517.5 799L518.5 799.5L519.5 800L520.5 800.5L521 800.5L522 800L523 800L524 799.5L524.5 798.5L525 798L525.5 797L525.5 796L525.5 795ZM524 823.5L526.5 823.5L529.5 823.5L532.5 823.5L535 823.5L538 823.5L540.5 823.5L543.5 823.5L546.5 823.5L549 823.5L552 823.5L555 823.5L557.5 823.5L560.5 823.5L563.5 823.5L566 823.5L569 823.5L570.5 823.5L572.5 823L573.5 822L575 821L576 820L577 818.5L577.5 816.5L577.5 815L577.5 813.5L577 811.5L576 810L575 809L573.5 808L572.5 807L570.5 806.5L569 806.5L566 806.5L563.5 806.5L560.5 806.5L557.5 806.5L555 806.5L552 806.5L549 806.5L546.5 806.5L543.5 806.5L540.5 806.5L538 806.5L535 806.5L532.5 806.5L529.5 806.5L526.5 806.5L524 806.5L522 806.5L520.5 807L519 808L517.5 809L516.5 810L516 811.5L515.5 813.5L515 815L515.5 816.5L516 818.5L516.5 820L517.5 821L519 822L520.5 823L522 823.5ZM558 794.5A6.5 6.5 0 1 1 570.5 794.5A6.5 6.5 0 1 1 558 794.5Z" fill="#14101F"></path></g></g>
<g id="riot__rig" display="none"><circle id="riot__rig__root" cx="512" cy="896" r="0"></circle><circle id="riot__rig__body-pivot" cx="512" cy="660" r="0"></circle><circle id="riot__rig__head-pivot" cx="512" cy="470" r="0"></circle><circle id="riot__rig__eye-l" cx="612" cy="516" r="0"></circle><circle id="riot__rig__eye-r" cx="498" cy="516" r="0"></circle><circle id="riot__rig__mouth" cx="566" cy="616" r="0"></circle><circle id="riot__rig__shoulder-l" cx="706" cy="700" r="0"></circle><circle id="riot__rig__shoulder-r" cx="330" cy="700" r="0"></circle><circle id="riot__rig__wrist-l" cx="791" cy="614" r="0"></circle><circle id="riot__rig__wrist-r" cx="285.5" cy="663" r="0"></circle><circle id="riot__rig__grip-l" cx="805" cy="600" r="0"></circle><circle id="riot__rig__grip-r" cx="270" cy="650" r="0"></circle><circle id="riot__rig__steam-origin" cx="566" cy="192" r="0"></circle><circle id="riot__rig__sachet-tear" cx="292" cy="544" r="0"></circle><circle id="riot__rig__look-at" cx="850" cy="516" r="0"></circle></g>
</svg>