<svg xmlns="http://www.w3.org/2000/svg" viewBox="0 0 1024 1024" width="1024" height="1024" xmlns:c2pa="http://c2pa.org/manifest"><metadata><c2pa:manifest>AAAWgmp1bWIAAAAeanVtZGMycGEAEQAQgAAAqgA4m3EDYzJwYQAAABZcanVtYgAAAEdqdW1kYzJtYQARABCAAACqADibcQN1cm46YzJwYTo1MjVjNzQyNi05MGVhLTRmNDQtYmQ2Ny05MDdmODI4ZmFkNWYAAAADl2p1bWIAAAApanVtZGMyYXMAEQAQgAAAqgA4m3EDYzJwYS5hc3NlcnRpb25zAAAAALxqdW1iAAAARGp1bWRjYm9yABEAEIAAAKoAOJtxE2MycGEuaW5ncmVkaWVudC52MwAAAAAYYzJzaIvpBb34PR7F5KvawxH4+ywAAABwY2JvcqNpZGM6Zm9ybWF0bWltYWdlL3N2Zyt4bWxqaW5zdGFuY2VJRHgseG1wOmlpZDozODdlYTkwYS05YWQ2LTRmNzQtYTU3My00YjQ3NTY3MjE3NGRscmVsYXRpb25zaGlwaHBhcmVudE9mAAAB4mp1bWIAAABBanVtZGNib3IAEQAQgAAAqgA4m3ETYzJwYS5hY3Rpb25zLnYyAAAAABhjMnNoHacBQL/YAGKHf9uAPFqm5gAAAZljYm9yomdhY3Rpb25zgqJmYWN0aW9ua2MycGEub3BlbmVkanBhcmFtZXRlcnOha2luZ3JlZGllbnRzgaJjdXJseC1zZWxmI2p1bWJmPWMycGEuYXNzZXJ0aW9ucy9jMnBhLmluZ3JlZGllbnQudjNkaGFzaFggD4wOyujW9YwYL94rao12dXzzw3v59wrLaLJSHTGYdUCkZmFjdGlvbngdY29tLmFudGhyb3BpYy5jbGF1ZGUucHJvdmlkZWRqcGFyYW1ldGVyc6F4H2NvbS5hbnRocm9waWMub3JpZ2luLWNvbmZpZGVuY2VndW5rbm93bmtkZXNjcmlwdGlvbnhmQ2xhdWRlIHByb3ZpZGVkIHRoaXMgZmlsZSBhdCB0aGUgcmVxdWVzdCBvZiBhIHVzZXIgYW5kIG1heSBoYXZlIGNyZWF0ZWQgb3IgbW9kaWZpZWQgdGhlIGZpbGUgY29udGVudHMubXNvZnR3YXJlQWdlbnShZG5hbWVmQ2xhdWRlcmFsbEFjdGlvbnNJbmNsdWRlZPUAAADIanVtYgAAAEBqdW1kY2JvcgARABCAAACqADibcRNjMnBhLmhhc2guZGF0YQAAAAAYYzJzaHobpfqdCh7z0QhQyTIw/5cAAACAY2JvcqVjYWxnZnNoYTI1NmNwYWRNAAAAAAAAAAAAAAAAAGRoYXNoWCC6dZxK6Brqnc038zTx8qEwOfV2Gpqv9ON4LaM49rpIe2RuYW1lbmp1bWJmIG1hbmlmZXN0amV4Y2x1c2lvbnOBomVzdGFydBiaZmxlbmd0aBkeBAAAAj5qdW1iAAAAJ2p1bWRjMmNsABEAEIAAAKoAOJtxA2MycGEuY2xhaW0udjIAAAACD2Nib3KlY2FsZ2ZzaGEyNTZpc2lnbmF0dXJleE1zZWxmI2p1bWJmPS9jMnBhL3VybjpjMnBhOjUyNWM3NDI2LTkwZWEtNGY0NC1iZDY3LTkwN2Y4MjhmYWQ1Zi9jMnBhLnNpZ25hdHVyZWppbnN0YW5jZUlEeCx4bXA6aWlkOjkzYzM4YThiLTNmZGUtNGJlNC1iNzkyLTcwMDYxZWU0Zjg3MnJjcmVhdGVkX2Fzc2VydGlvbnODomN1cmx4LXNlbGYjanVtYmY9YzJwYS5hc3NlcnRpb25zL2MycGEuaW5ncmVkaWVudC52M2RoYXNoWCAPjA7K6Nb1jBgv3itqjXZ1fPPDe/n3CstoslIdMZh1QKJjdXJseCpzZWxmI2p1bWJmPWMycGEuYXNzZXJ0aW9ucy9jMnBhLmFjdGlvbnMudjJkaGFzaFggn2MbCmYXjiIWyXtht7I49YSypTSzjMK2dWPxF5nbCguiY3VybHgpc2VsZiNqdW1iZj1jMnBhLmFzc2VydGlvbnMvYzJwYS5oYXNoLmRhdGFkaGFzaFggbHUKVEZh+V6oFWC3CdaPJqUylsp1fXqGD351bsUOiy10Y2xhaW1fZ2VuZXJhdG9yX2luZm+jZG5hbWVvQW50aHJvcGljIEZpbGVzZ3ZlcnNpb25lMS4wLjBrc3BlY1ZlcnNpb25lMi40LjAAABA4anVtYgAAAChqdW1kYzJjcwARABCAAACqADibcQNjMnBhLnNpZ25hdHVyZQAAABAIY2JvctKEWQISogEmGCFZAgowggIGMIIBjaADAgECAhRA5aAK7sI50L64g/oGQgU9Z1UTADAKBggqhkjOPQQDAzBJMRcwFQYDVQQKEw5BbnRocm9waWMsIFBCQzEuMCwGA1UEAxMlQW50aHJvcGljIENvbnRlbnQgQ3JlZGVudGlhbHMgUm9vdCBDQTAeFw0yNjA4MDcxODQzNTZaFw0yODA4MDYxOTQzNTZaMEQxFzAVBgNVBAoTDkFudGhyb3BpYywgUEJDMSkwJwYDVQQDEyBBbnRocm9waWMgQ2xhdWRlIENvbnRlbnQgU2lnbmluZzBZMBMGByqGSM49AgEGCCqGSM49AwEHA0IABJh6CmvLUBgFFNU0vUKlOVtE6djd17L5SuwX0LemFisBM3dkd/3cyjxFA3Qo5S46fX0/ihY0VZ7mfb9KF703t5OjWDBWMA4GA1UdDwEB/wQEAwIHgDAVBgNVHSUEDjAMBgorBgEEAYPoXgIBMAwGA1UdEwEB/wQCMAAwHwYDVR0jBBgwFoAUzlHiBIFOZFsj+OPEz5o+nMHXXMIwCgYIKoZIzj0EAwMDZwAwZAIwMXMdFJ4BetLLVY7ORuE9noqbbAZOZn/aArXyTwFAZfKrPzxF2vPoJNf1+UCdg1XGAjBwX1zd9WGqYkqmL5SFqw1QySjr1zJfpJM9+1rdDwSPLMOPOjKuiXjoU/pUUeG9RwmhY3BhZFkNngAAAAAAAAAAAAAAAAAAAAAAAAAAAAAAAAAAAAAAAAAAAAAAAAAAAAAAAAAAAAAAAAAAAAAAAAAAAAAAAAAAAAAAAAAAAAAAAAAAAAAAAAAAAAAAAAAAAAAAAAAAAAAAAAAAAAAAAAAAAAAAAAAAAAAAAAAAAAAAAAAAAAAAAAAAAAAAAAAAAAAAAAAAAAAAAAAAAAAAAAAAAAAAAAAAAAAAAAAAAAAAAAAAAAAAAAAAAAAAAAAAAAAAAAAAAAAAAAAAAAAAAAAAAAAAAAAAAAAAAAAAAAAAAAAAAAAAAAAAAAAAAAAAAAAAAAAAAAAAAAAAAAAAAAAAAAAAAAAAAAAAAAAAAAAAAAAAAAAAAAAAAAAAAAAAAAAAAAAAAAAAAAAAAAAAAAAAAAAAAAAAAAAAAAAAAAAAAAAAAAAAAAAAAAAAAAAAAAAAAAAAAAAAAAAAAAAAAAAAAAAAAAAAAAAAAAAAAAAAAAAAAAAAAAAAAAAAAAAAAAAAAAAAAAAAAAAAAAAAAAAAAAAAAAAAAAAAAAAAAAAAAAAAAAAAAAAAAAAAAAAAAAAAAAAAAAAAAAAAAAAAAAAAAAAAAAAAAAAAAAAAAAAAAAAAAAAAAAAAAAAAAAAAAAAAAAAAAAAAAAAAAAAAAAAAAAAAAAAAAAAAAAAAAAAAAAAAAAAAAAAAAAAAAAAAAAAAAAAAAAAAAAAAAAAAAAAAAAAAAAAAAAAAAAAAAAAAAAAAAAAAAAAAAAAAAAAAAAAAAAAAAAAAAAAAAAAAAAAAAAAAAAAAAAAAAAAAAAAAAAAAAAAAAAAAAAAAAAAAAAAAAAAAAAAAAAAAAAAAAAAAAAAAAAAAAAAAAAAAAAAAAAAAAAAAAAAAAAAAAAAAAAAAAAAAAAAAAAAAAAAAAAAAAAAAAAAAAAAAAAAAAAAAAAAAAAAAAAAAAAAAAAAAAAAAAAAAAAAAAAAAAAAAAAAAAAAAAAAAAAAAAAAAAAAAAAAAAAAAAAAAAAAAAAAAAAAAAAAAAAAAAAAAAAAAAAAAAAAAAAAAAAAAAAAAAAAAAAAAAAAAAAAAAAAAAAAAAAAAAAAAAAAAAAAAAAAAAAAAAAAAAAAAAAAAAAAAAAAAAAAAAAAAAAAAAAAAAAAAAAAAAAAAAAAAAAAAAAAAAAAAAAAAAAAAAAAAAAAAAAAAAAAAAAAAAAAAAAAAAAAAAAAAAAAAAAAAAAAAAAAAAAAAAAAAAAAAAAAAAAAAAAAAAAAAAAAAAAAAAAAAAAAAAAAAAAAAAAAAAAAAAAAAAAAAAAAAAAAAAAAAAAAAAAAAAAAAAAAAAAAAAAAAAAAAAAAAAAAAAAAAAAAAAAAAAAAAAAAAAAAAAAAAAAAAAAAAAAAAAAAAAAAAAAAAAAAAAAAAAAAAAAAAAAAAAAAAAAAAAAAAAAAAAAAAAAAAAAAAAAAAAAAAAAAAAAAAAAAAAAAAAAAAAAAAAAAAAAAAAAAAAAAAAAAAAAAAAAAAAAAAAAAAAAAAAAAAAAAAAAAAAAAAAAAAAAAAAAAAAAAAAAAAAAAAAAAAAAAAAAAAAAAAAAAAAAAAAAAAAAAAAAAAAAAAAAAAAAAAAAAAAAAAAAAAAAAAAAAAAAAAAAAAAAAAAAAAAAAAAAAAAAAAAAAAAAAAAAAAAAAAAAAAAAAAAAAAAAAAAAAAAAAAAAAAAAAAAAAAAAAAAAAAAAAAAAAAAAAAAAAAAAAAAAAAAAAAAAAAAAAAAAAAAAAAAAAAAAAAAAAAAAAAAAAAAAAAAAAAAAAAAAAAAAAAAAAAAAAAAAAAAAAAAAAAAAAAAAAAAAAAAAAAAAAAAAAAAAAAAAAAAAAAAAAAAAAAAAAAAAAAAAAAAAAAAAAAAAAAAAAAAAAAAAAAAAAAAAAAAAAAAAAAAAAAAAAAAAAAAAAAAAAAAAAAAAAAAAAAAAAAAAAAAAAAAAAAAAAAAAAAAAAAAAAAAAAAAAAAAAAAAAAAAAAAAAAAAAAAAAAAAAAAAAAAAAAAAAAAAAAAAAAAAAAAAAAAAAAAAAAAAAAAAAAAAAAAAAAAAAAAAAAAAAAAAAAAAAAAAAAAAAAAAAAAAAAAAAAAAAAAAAAAAAAAAAAAAAAAAAAAAAAAAAAAAAAAAAAAAAAAAAAAAAAAAAAAAAAAAAAAAAAAAAAAAAAAAAAAAAAAAAAAAAAAAAAAAAAAAAAAAAAAAAAAAAAAAAAAAAAAAAAAAAAAAAAAAAAAAAAAAAAAAAAAAAAAAAAAAAAAAAAAAAAAAAAAAAAAAAAAAAAAAAAAAAAAAAAAAAAAAAAAAAAAAAAAAAAAAAAAAAAAAAAAAAAAAAAAAAAAAAAAAAAAAAAAAAAAAAAAAAAAAAAAAAAAAAAAAAAAAAAAAAAAAAAAAAAAAAAAAAAAAAAAAAAAAAAAAAAAAAAAAAAAAAAAAAAAAAAAAAAAAAAAAAAAAAAAAAAAAAAAAAAAAAAAAAAAAAAAAAAAAAAAAAAAAAAAAAAAAAAAAAAAAAAAAAAAAAAAAAAAAAAAAAAAAAAAAAAAAAAAAAAAAAAAAAAAAAAAAAAAAAAAAAAAAAAAAAAAAAAAAAAAAAAAAAAAAAAAAAAAAAAAAAAAAAAAAAAAAAAAAAAAAAAAAAAAAAAAAAAAAAAAAAAAAAAAAAAAAAAAAAAAAAAAAAAAAAAAAAAAAAAAAAAAAAAAAAAAAAAAAAAAAAAAAAAAAAAAAAAAAAAAAAAAAAAAAAAAAAAAAAAAAAAAAAAAAAAAAAAAAAAAAAAAAAAAAAAAAAAAAAAAAAAAAAAAAAAAAAAAAAAAAAAAAAAAAAAAAAAAAAAAAAAAAAAAAAAAAAAAAAAAAAAAAAAAAAAAAAAAAAAAAAAAAAAAAAAAAAAAAAAAAAAAAAAAAAAAAAAAAAAAAAAAAAAAAAAAAAAAAAAAAAAAAAAAAAAAAAAAAAAAAAAAAAAAAAAAAAAAAAAAAAAAAAAAAAAAAAAAAAAAAAAAAAAAAAAAAAAAAAAAAAAAAAAAAAAAAAAAAAAAAAAAAAAAAAAAAAAAAAAAAAAAAAAAAAAAAAAAAAAAAAAAAAAAAAAAAAAAAAAAAAAAAAAAAAAAAAAAAAAAAAAAAAAAAAAAAAAAAAAAAAAAAAAAAAAAAAAAAAAAAAAAAAAAAAAAAAAAAAAAAAAAAAAAAAAAAAAAAAAAAAAAAAAAAAAAAAAAAAAAAAAAAAAAAAAAAAAAAAAAAAAAAAAAAAAAAAAAAAAAAAAAAAAAAAAAAAAAAAAAAAAAAAAAAAAAAAAAAAAAAAAAAAAAAAAAAAAAAAAAAAAAAAAAAAAAAAAAAAAAAAAAAAAAAAAAAAAAAAAAAAAAAAAAAAAAAAAAAAAAAAAAAAAAAAAAAAAAAAAAAAAAAAAAAAAAAAAAAAAAAAAAAAAAAAAAAAAAAAAAAAAAAAAAAAAAAAAAAAAAAAAAAAAAAAAAAAAAAAAAAAAAAAAAAAAAAAAAAAAAAAAAAAAAAAAAAAAAAAAAAAAAAAAAAAAAAAAAAAAAAAAAAAAAAAAAAAAAAAAAAAAAAAAAAAAAAAAAAAAAAAAAAAAAAAAAAAAAAAAAAAAAAAAAAAAAAAAAAAAAAAAAAAAAAAAAAAAAAAAAAAAAAAAAAAAAAAAAAAAAAAAAAAAAAAAAAAAAAAAAAAAAAAAAAAAAAAAAAAAAAAAAAAAAAAAAAAAAAAAAAAAAAAAAAAAAAAAAAAAAAAAAAAAAAAAAAAAAAAAAAAAAAAAAAAAAAAAAAAAAAAAAAAAAAAAAAAAAAAAAAAAAAAAAAAAAAAAAAAAAAAAAAAAAAAAAAAAAAAAAAAAAAAAAAAAAAAAAAAAAAAAAAAAAAAAAAAAAAAAAAAAAAAAAAAAAAAAAAAAAAAAAAAAAAAAAAAAAAAAAAAAAAAAAAAAAAAAAAAAAAAAAAAAAAAAAAAAAAAAAAAAAAAAAAAAAAAAAAAAAAAAAAAAAAAAAAAAAAAAAAAAAAAAAAAAAAAAAAAAAAAAAAAAAAAAAAAAAAAAAAAAAAAAAAAAAAAAAAAAAAAAAAAAAAAAAAAAAAAAAAAAAAAAAAAAAAAAAAAAAAAAAAAAAAAAAAAAAAAAAAAAAAAAAAAAAAAAAAAAAAAAAAAAAAAAAAAAAAAAAAAAAAAAAAAAAAAAAAAAAAAAAAAAAAAAAAAAAAAAAAAAAAAAAAAAAAAAAAAAAAAAAAAAAAAAAAAAAAAAAAAAAAAAAAAAAAAAAAAAAAAAAAAAAAAAAAAAAAAAAAAAAAAAAAAAAAAAAAAAAAAAAAAAAAAAAAAAAAAAAAAAAAAAAAAAAAAAAAAAAAAAAAAAAAAAAAAAAAAAAAAAAAAAAAAAAAAAAAAAAAAAAAAAAAAAAAAAAAAAAAAAAAAAAAAAAAAAAAAAAAAAAAAAAAAAAAAAAAAAAAAAAAAAAAAAAAAAAAAAAAAAAAAAAAAAAAAAAAAAAAAAAAAAAAAAAAAAAAAAAAAAAAAAAAAAAAAAAAAAAAAAAAAAAAAAAAAAAAAAAAAAAAAAAAAAAAAAAAAAAAAAAAAAAAAAAAAAAAAAAAAAAAAAAAAAAAAAAAAAAAAAAAAAAAAAAAAAAAAAAAAAAAAAAAAAAAAAAAAAAAAAAAAAAAAAAAAAAAPZYQK5+Yf2NPHK+TQ/dtMK7n9m+W5kG+evy2fxKMFQzrEwbpVgcRg9J/3bdXddmdMZVPo8q/mdszLrQ6FP2g3H96og=</c2pa:manifest></metadata>

<g id="cram__background"></g>
<g id="cram__environment"><path d="M176 896L848 896L848 912L176 912Z" fill="#000000"></path></g>
<g id="cram__body"><g id="cram__body__torso"><path d="M332 366L692 366L672 896L352 896Z" fill="#FFFFFF" stroke="#000000" stroke-width="16" stroke-linejoin="miter" stroke-linecap="square"></path></g><g id="cram__body__detail"><path d="M345 704L679 704L675.5 808L348.5 808Z" fill="#E6E6E6" stroke="#000000" stroke-width="16" stroke-linejoin="miter" stroke-linecap="square"></path><path d="M372 724L404 724L404 748L372 748Z" fill="#000000"></path><path d="M372 764L404 764L404 788L372 788Z" fill="#BFBFBF"></path><path d="M424 724L456 724L456 748L424 748Z" fill="#BFBFBF"></path><path d="M424 764L456 764L456 788L424 788Z" fill="#BFBFBF"></path><path d="M476 724L508 724L508 748L476 748Z" fill="#BFBFBF"></path><path d="M476 764L508 764L508 788L476 788Z" fill="#000000"></path><path d="M528 724L560 724L560 748L528 748Z" fill="#000000"></path><path d="M528 764L560 764L560 788L528 788Z" fill="#BFBFBF"></path><path d="M580 724L612 724L612 748L580 748Z" fill="#BFBFBF"></path><path d="M580 764L612 764L612 788L580 788Z" fill="#BFBFBF"></path><path d="M632 724L664 724L664 748L632 748Z" fill="#BFBFBF"></path><path d="M632 764L664 764L664 788L632 788Z" fill="#000000"></path></g><g id="cram__body__cup-rim"><path d="M332 366A180 40 0 1 1 692 366A180 40 0 1 1 332 366Z" fill="#FFFFFF" stroke="#000000" stroke-width="16" stroke-linejoin="miter" stroke-linecap="square"></path><path d="M364 370A148 24 0 1 1 660 370A148 24 0 1 1 364 370Z" fill="#404040"></path></g><g id="cram__body__headphones"><path d="M308 456L308.5 440L310.5 424L313.5 408.5L318 393L323.5 378L330 363.5L338 349.5L347 336L357 323.5L368 312L379.5 301L392 291L405.5 282L419.5 274L434 267.5L449 262L464.5 257.5L480 254.5L496 252.5L512 252L528 252.5L544 254.5L559.5 257.5L575 262L590 267.5L604.5 274L618.5 282L632 291L644.5 301L656 312L667 323.5L677 336L686 349.5L694 363.5L700.5 378L706 393L710.5 408.5L713.5 424L715.5 440L716 456L688 456L687.5 442L686 428.5L683 415L679.5 401.5L674.5 388.5L669 376L662 364L654.5 352.5L646 341.5L636.5 331.5L626.5 322L615.5 313.5L604 306L592 299L579.5 293.5L566.5 288.5L553 285L539.5 282L526 280.5L512 280L498 280.5L484.5 282L471 285L457.5 288.5L444.5 293.5L432 299L420 306L408.5 313.5L397.5 322L387.5 331.5L378 341.5L369.5 352.5L362 364L355 376L349.5 388.5L344.5 401.5L341 415L338 428.5L336.5 442L336 456Z" fill="#000000"></path><path d="M284 415L340 415L340 525L284 525Z" fill="#000000"></path><path d="M684 415L740 415L740 525L684 525Z" fill="#000000"></path></g></g>
<g id="cram__face"><g id="cram__face__eye-l"><path d="M544 518A28 28 0 1 1 600 518A28 28 0 1 1 544 518Z" fill="#000000"></path><path d="M573 509A7 7 0 1 1 587 509A7 7 0 1 1 573 509Z" fill="#FFFFFF"></path></g><g id="cram__face__eye-r"><path d="M424 518A28 28 0 1 1 480 518A28 28 0 1 1 424 518Z" fill="#000000"></path><path d="M453 509A7 7 0 1 1 467 509A7 7 0 1 1 453 509Z" fill="#FFFFFF"></path></g><g id="cram__face__lid-l"><g id="cram__face__lid-l--open"><path d="M536 478L608 478L608 502.5L536 502.5Z" fill="#FFFFFF"></path><path d="M538 502.5L606 502.5" fill="none" stroke="#000000" stroke-width="16" stroke-linejoin="miter" stroke-linecap="square"></path></g><g id="cram__face__lid-l--half" display="none"><path d="M536 478L608 478L608 521L536 521Z" fill="#FFFFFF"></path><path d="M538 521L606 521" fill="none" stroke="#000000" stroke-width="16" stroke-linejoin="miter" stroke-linecap="square"></path></g><g id="cram__face__lid-l--closed" display="none"><path d="M536 478L608 478L608 554L536 554Z" fill="#FFFFFF"></path><path d="M542 518L572 526L602 518" fill="none" stroke="#000000" stroke-width="16" stroke-linejoin="miter" stroke-linecap="square"></path></g></g><g id="cram__face__lid-r"><g id="cram__face__lid-r--open"><path d="M416 478L488 478L488 502.5L416 502.5Z" fill="#FFFFFF"></path><path d="M418 502.5L486 502.5" fill="none" stroke="#000000" stroke-width="16" stroke-linejoin="miter" stroke-linecap="square"></path></g><g id="cram__face__lid-r--half" display="none"><path d="M416 478L488 478L488 521L416 521Z" fill="#FFFFFF"></path><path d="M418 521L486 521" fill="none" stroke="#000000" stroke-width="16" stroke-linejoin="miter" stroke-linecap="square"></path></g><g id="cram__face__lid-r--closed" display="none"><path d="M416 478L488 478L488 554L416 554Z" fill="#FFFFFF"></path><path d="M422 518L452 526L482 518" fill="none" stroke="#000000" stroke-width="16" stroke-linejoin="miter" stroke-linecap="square"></path></g></g><g id="cram__face__brow-l"><g id="cram__face__brow-l--neutral"><path d="M602 458L542 458" fill="none" stroke="#000000" stroke-width="16" stroke-linejoin="miter" stroke-linecap="square"></path></g><g id="cram__face__brow-l--raised" display="none"><path d="M602 444L542 438" fill="none" stroke="#000000" stroke-width="16" stroke-linejoin="miter" stroke-linecap="square"></path></g><g id="cram__face__brow-l--low" display="none"><path d="M602 464L542 474" fill="none" stroke="#000000" stroke-width="16" stroke-linejoin="miter" stroke-linecap="square"></path></g><g id="cram__face__brow-l--worried" display="none"><path d="M602 466L542 448" fill="none" stroke="#000000" stroke-width="16" stroke-linejoin="miter" stroke-linecap="square"></path></g></g><g id="cram__face__brow-r"><g id="cram__face__brow-r--neutral"><path d="M422 458L482 458" fill="none" stroke="#000000" stroke-width="16" stroke-linejoin="miter" stroke-linecap="square"></path></g><g id="cram__face__brow-r--raised" display="none"><path d="M422 444L482 438" fill="none" stroke="#000000" stroke-width="16" stroke-linejoin="miter" stroke-linecap="square"></path></g><g id="cram__face__brow-r--low" display="none"><path d="M422 464L482 474" fill="none" stroke="#000000" stroke-width="16" stroke-linejoin="miter" stroke-linecap="square"></path></g><g id="cram__face__brow-r--worried" display="none"><path d="M422 466L482 448" fill="none" stroke="#000000" stroke-width="16" stroke-linejoin="miter" stroke-linecap="square"></path></g></g><g id="cram__face__mouth"><g id="cram__face__mouth--neutral"><path d="M488 608L536 608" fill="none" stroke="#000000" stroke-width="16" stroke-linejoin="miter" stroke-linecap="square"></path></g><g id="cram__face__mouth--smile" display="none"><path d="M478 602Q512 634 546 602" fill="none" stroke="#000000" stroke-width="16" stroke-linejoin="miter" stroke-linecap="square"></path></g><g id="cram__face__mouth--open" display="none"><path d="M482 600L542 600Q542 642 512 642Q482 642 482 600Z" fill="#000000" stroke="#000000" stroke-width="16" stroke-linejoin="miter" stroke-linecap="square"></path></g><g id="cram__face__mouth--chew" display="none"><path d="M482 608L497 598L512 608L527 598L542 608" fill="none" stroke="#000000" stroke-width="16" stroke-linejoin="miter" stroke-linecap="square"></path></g><g id="cram__face__mouth--o" display="none"><path d="M498 614A14 18 0 1 1 526 614A14 18 0 1 1 498 614Z" fill="#000000"></path></g><g id="cram__face__mouth--flat" display="none"><path d="M472 612L552 612" fill="none" stroke="#000000" stroke-width="16" stroke-linejoin="miter" stroke-linecap="square"></path></g></g></g>
<g id="cram__limbs"><g id="cram__limbs__arm-r"><path d="M344.5 629L263 596.5L254 618.5L335.5 651Z" fill="#FFFFFF" stroke="#000000" stroke-width="16" stroke-linejoin="miter" stroke-linecap="square"></path></g><g id="cram__limbs__arm-l"><path d="M688 651.5L785 618L777 595L680 628.5Z" fill="#FFFFFF" stroke="#000000" stroke-width="16" stroke-linejoin="miter" stroke-linecap="square"></path></g><g id="cram__limbs__hand-r"><path d="M220 580L260 580L260 620L220 620Z" fill="#FFFFFF" stroke="#000000" stroke-width="16" stroke-linejoin="miter" stroke-linecap="square"></path></g><g id="cram__limbs__hand-l"><path d="M780 580L820 580L820 620L780 620Z" fill="#FFFFFF" stroke="#000000" stroke-width="16" stroke-linejoin="miter" stroke-linecap="square"></path></g></g>
<g id="cram__props"><g id="cram__props__sachet"><g id="cram__props__sachet__red"><path d="M140 640L288 640L300 648L300 668L140 764Z" fill="#000000" stroke="#000000" stroke-width="16" stroke-linejoin="miter" stroke-linecap="square"></path></g><g id="cram__props__sachet__yellow"><path d="M140 764L300 668L300 830L300 830L296 836L292 830L288 836L284 830L280 836L276 830L272 836L268 830L264 836L260 830L256 836L252 830L248 836L244 830L240 836L236 830L232 836L228 830L224 836L220 830L216 836L212 830L208 836L204 830L200 836L196 830L192 836L188 830L184 836L180 830L176 836L172 830L168 836L164 830L160 836L156 830L152 836L148 830L144 836L140 830L140 830Z" fill="#BFBFBF" stroke="#000000" stroke-width="16" stroke-linejoin="miter" stroke-linecap="square"></path><path d="M224 777.5L224 764L224 764.5L224 765L224 765L223.5 765L223.5 765L224 765L224 764.5L224.5 764.5L225 764.5L225.5 764L226 763.5L227 763.5L227.5 763L228.5 763L229.5 762.5L230.5 762.5L231.5 762.5L232.5 762L234 762L235 762L236.5 761.5L237.5 761.5L238.5 761.5L240 761.5L241.5 761.5L242.5 761.5L243.5 761.5L245 762L246 762L247.5 762L248.5 762.5L249.5 762.5L250.5 762.5L251.5 763L252.5 763L253 763.5L254 763.5L254.5 764L255 764.5L255.5 764.5L256 764.5L256 765L256.5 765L256.5 765L256 765L256 765L256 764.5L256 764L256 766.5L256 768.5L256 771L256 773L256 775.5L256 778L256 780L256 780L255.5 780.5L253 782L250.5 784L248.5 786L246 787.5L243.5 789.5L241 791L238.5 793L236.5 795L234 796.5L231.5 798.5L229 800L226.5 802L224.5 804L222 805.5L219.5 807.5L225.5 815L227.5 813L230 811.5L232.5 809.5L235 808L237.5 806L239.5 804L242 802.5L244.5 800.5L247 799L249.5 797L251.5 795L254 793.5L256.5 791.5L259 790L261.5 788L265.5 785L265.5 780L265.5 778L265.5 775.5L265.5 773L265.5 771L265.5 768.5L265.5 766.5L265.5 764L265.5 762.5L265 761.5L264.5 760L264 759L263 758.5L262.5 757.5L261.5 757L260.5 756.5L259.5 755.5L258.5 755L257.5 755L256.5 754.5L255 754L254 753.5L252.5 753.5L251.5 753L250 753L248.5 752.5L247 752.5L246 752.5L244.5 752L243 752L241.5 752L240 752L238.5 752L237 752L235.5 752L234 752.5L233 752.5L231.5 752.5L230 753L228.5 753L227.5 753.5L226 753.5L225 754L223.5 754.5L222.5 755L221.5 755L220.5 755.5L219.5 756.5L218.5 757L217.5 757.5L217 758.5L216 759L215.5 760L215 761.5L214.5 762.5L214.5 764L214.5 777.5ZM214.5 806.5L265.5 806.5L265.5 816L214.5 816Z" fill="#000000"></path></g><g id="cram__props__sachet__tear-strip"><path d="M140 602L144 596L148 602L152 596L156 602L160 596L164 602L168 596L172 602L176 596L180 602L184 596L188 602L192 596L196 602L200 596L204 602L208 596L212 602L216 596L220 602L224 596L228 602L232 596L236 602L240 596L244 602L248 596L252 602L256 596L260 602L264 596L268 602L272 596L276 602L280 596L284 602L288 596L292 602L296 596L300 602L300 632L288 640L140 640Z" fill="#000000" stroke="#000000" stroke-width="16" stroke-linejoin="miter" stroke-linecap="square"></path></g><g id="cram__props__sachet__notch"><path d="M300 632L288 640L300 648Z" fill="#FFFFFF"></path></g></g><g id="cram__props__fork"><path d="M791 452L809 452L809 620L791 620Z" fill="#000000"></path><path d="M770 432L830 432L830 454L770 454Z" fill="#000000"></path><path d="M770 400L782 400L782 436L770 436Z" fill="#000000"></path><path d="M786 400L798 400L798 436L786 436Z" fill="#000000"></path><path d="M802 400L814 400L814 436L802 436Z" fill="#000000"></path><path d="M818 400L830 400L830 436L818 436Z" fill="#000000"></path></g><g id="cram__props__backpack"><path d="M352 420L372 420L372 720L352 720Z" fill="#404040" stroke="#000000" stroke-width="16" stroke-linejoin="miter" stroke-linecap="square"></path><path d="M652 420L672 420L672 720L652 720Z" fill="#404040" stroke="#000000" stroke-width="16" stroke-linejoin="miter" stroke-linecap="square"></path></g><g id="cram__props__phone-timer"><g id="cram__props__phone-timer--idle"><path d="M786 782L850 782L850 888L786 888Z" fill="#000000" stroke="#000000" stroke-width="16" stroke-linejoin="miter" stroke-linecap="square"></path><path d="M796 794L840 794L840 864L796 864Z" fill="#E6E6E6"></path><path d="M802 834L824 834L824 846L802 846Z" fill="#000000"></path></g><g id="cram__props__phone-timer--ringing" display="none"><path d="M786 782L850 782L850 888L786 888Z" fill="#000000" stroke="#000000" stroke-width="16" stroke-linejoin="miter" stroke-linecap="square"></path><path d="M796 794L840 794L840 864L796 864Z" fill="#FFFFFF"></path><path d="M802 834L824 834L824 846L802 846Z" fill="#000000"></path><path d="M768 802L768 826" fill="none" stroke="#000000" stroke-width="16" stroke-linejoin="miter" stroke-linecap="square"></path><path d="M752 810L752 834" fill="none" stroke="#000000" stroke-width="16" stroke-linejoin="miter" stroke-linecap="square"></path><path d="M868 802L868 826" fill="none" stroke="#000000" stroke-width="16" stroke-linejoin="miter" stroke-linecap="square"></path><path d="M884 810L884 834" fill="none" stroke="#000000" stroke-width="16" stroke-linejoin="miter" stroke-linecap="square"></path></g></g></g>
<g id="cram__noodles-steam"><g id="cram__noodles-steam__steam-1"><path d="M447 350L452.5 343.5L457 336.5L460 330L461 323L460 316.5L457 309.5L452.5 303L447 296L442 289.5L437.5 282.5L434.5 276L433 269L434.5 262.5L437.5 255.5L442 249L447 242L452.5 235.5L457 228.5L460 222L461 215L460 208.5L457 201.5L452.5 195L447 188" fill="none" stroke="#808080" stroke-width="16" stroke-linejoin="round" stroke-linecap="round"></path></g><g id="cram__noodles-steam__steam-2"><path d="M512 350L517.5 341L522 332L525 323L526 314L525 305L522 296L517.5 287L512 278L506.5 269L502 260L499 251L498 242L499 233L502 224L506.5 215L512 206L517.5 197L522 188L525 179L526 170L525 161L522 152L517.5 143L512 134" fill="none" stroke="#808080" stroke-width="16" stroke-linejoin="round" stroke-linecap="round"></path></g><g id="cram__noodles-steam__steam-3"><path d="M577 350L582 344L586.5 338L589.5 332L591 326L589.5 320L586.5 314L582 308L577 302L571.5 296L567 290L564 284L563 278L564 272L567 266L571.5 260L577 254L582 248L586.5 242L589.5 236L591 230L589.5 224L586.5 218L582 212L577 206" fill="none" stroke="#808080" stroke-width="16" stroke-linejoin="round" stroke-linecap="round"></path></g><g id="cram__noodles-steam__noodles"><path d="M410 368L412.5 370L415 372L417.5 373L420 373.5L422.5 373.5L425 372.5L427.5 371L430 369.5L432.5 367.5L435 366L437.5 365L440 365L442.5 365.5L445 367L447.5 368.5L450 370.5L452.5 372.5L455 374.5L457.5 376L460 376.5L462.5 376L465 375L467.5 373.5L470 372" fill="none" stroke="#FFFFFF" stroke-width="16" stroke-linejoin="round" stroke-linecap="round"></path><path d="M490 376L493 377.5L496 378.5L499 379.5L501.5 379.5L504.5 378.5L507.5 377L510.5 375L513.5 372.5L516.5 370.5L519 368.5L522 367L525 366L528 366L531 366.5L534 368L536.5 369.5L539.5 371L542.5 372L545.5 372.5L548.5 372.5L551.5 372L554 370.5L557 368.5L560 366" fill="none" stroke="#FFFFFF" stroke-width="16" stroke-linejoin="round" stroke-linecap="round"></path><path d="M567 385L567.5 389L568 393L568.5 396.5L569 400L569 403.5L569.5 406.5L570 409L570.5 411.5L571 413.5L571.5 415.5L572 417L572.5 418.5L573 419.5L573.5 420.5L573.5 422L574 423.5L574.5 425L574.5 427.5L575 430L575.5 432.5L576 436L576 439.5L576.5 443.5L577 447L599 445L598.5 441L598 437L597.5 433.5L597 430L597 426.5L596.5 423.5L596 421L595.5 418.5L595 416.5L594.5 414.5L594 413L593.5 411.5L593 410.5L592.5 409.5L592.5 408L592 406.5L591.5 405L591.5 402.5L591 400L590.5 397.5L590 394L590 390.5L589.5 386.5L589 383Z" fill="#FFFFFF" stroke="#000000" stroke-width="16" stroke-linejoin="miter" stroke-linecap="square"></path></g></g>
<g id="cram__foreground-type"><g id="cram__foreground-type__two-mark"><path d="M496 755.5L496 742L496 742.5L496 743L496 743L495.5 743L495.5 743L496 743L496 742.5L496.5 742.5L497 742.5L497.5 742L498 741.5L499 741.5L499.5 741L500.5 741L501.5 740.5L502.5 740.5L503.5 740.5L504.5 740L506 740L507 740L508.5 739.5L509.5 739.5L510.5 739.5L512 739.5L513.5 739.5L514.5 739.5L515.5 739.5L517 740L518 740L519.5 740L520.5 740.5L521.5 740.5L522.5 740.5L523.5 741L524.5 741L525 741.5L526 741.5L526.5 742L527 742.5L527.5 742.5L528 742.5L528 743L528.5 743L528.5 743L528 743L528 743L528 742.5L528 742L528 744.5L528 746.5L528 749L528 751L528 753.5L528 756L528 758L528 758L527.5 758.5L525 760L522.5 762L520.5 764L518 765.5L515.5 767.5L513 769L510.5 771L508.5 773L506 774.5L503.5 776.5L501 778L498.5 780L496.5 782L494 783.5L491.5 785.5L497.5 793L499.5 791L502 789.5L504.5 787.5L507 786L509.5 784L511.5 782L514 780.5L516.5 778.5L519 777L521.5 775L523.5 773L526 771.5L528.5 769.5L531 768L533.5 766L537.5 763L537.5 758L537.5 756L537.5 753.5L537.5 751L537.5 749L537.5 746.5L537.5 744.5L537.5 742L537.5 740.5L537 739.5L536.5 738L536 737L535 736.5L534.5 735.5L533.5 735L532.5 734.5L531.5 733.5L530.5 733L529.5 733L528.5 732.5L527 732L526 731.5L524.5 731.5L523.5 731L522 731L520.5 730.5L519 730.5L518 730.5L516.5 730L515 730L513.5 730L512 730L510.5 730L509 730L507.5 730L506 730.5L505 730.5L503.5 730.5L502 731L500.5 731L499.5 731.5L498 731.5L497 732L495.5 732.5L494.5 733L493.5 733L492.5 733.5L491.5 734.5L490.5 735L489.5 735.5L489 736.5L488 737L487.5 738L487 739.5L486.5 740.5L486.5 742L486.5 755.5ZM486.5 784.5L537.5 784.5L537.5 794L486.5 794Z" fill="#000000"></path></g></g>
<g id="cram__rig" display="none"><circle id="cram__rig__root" cx="512" cy="896" r="0"></circle><circle id="cram__rig__body-pivot" cx="512" cy="631" r="0"></circle><circle id="cram__rig__head-pivot" cx="512" cy="366" r="0"></circle><circle id="cram__rig__eye-l" cx="572" cy="518" r="0"></circle><circle id="cram__rig__eye-r" cx="452" cy="518" r="0"></circle><circle id="cram__rig__mouth" cx="512" cy="608" r="0"></circle><circle id="cram__rig__shoulder-l" cx="684" cy="640" r="0"></circle><circle id="cram__rig__shoulder-r" cx="340" cy="640" r="0"></circle><circle id="cram__rig__wrist-l" cx="781" cy="606.5" r="0"></circle><circle id="cram__rig__wrist-r" cx="258.5" cy="607.5" r="0"></circle><circle id="cram__rig__grip-l" cx="800" cy="600" r="0"></circle><circle id="cram__rig__grip-r" cx="240" cy="600" r="0"></circle><circle id="cram__rig__steam-origin" cx="512" cy="366" r="0"></circle><circle id="cram__rig__sachet-tear" cx="288" cy="640" r="0"></circle><circle id="cram__rig__look-at" cx="512" cy="518" r="0"></circle></g>
</svg>