<svg xmlns="http://www.w3.org/2000/svg" viewBox="0 0 1920 1080" width="1920" height="1080" xmlns:c2pa="http://c2pa.org/manifest"><metadata><c2pa:manifest>AAAWgmp1bWIAAAAeanVtZGMycGEAEQAQgAAAqgA4m3EDYzJwYQAAABZcanVtYgAAAEdqdW1kYzJtYQARABCAAACqADibcQN1cm46YzJwYTo2N2IxZmNlOC03MjkyLTQ3NzMtYjIwZC03NGRlYzExNGI2OWIAAAADl2p1bWIAAAApanVtZGMyYXMAEQAQgAAAqgA4m3EDYzJwYS5hc3NlcnRpb25zAAAAALxqdW1iAAAARGp1bWRjYm9yABEAEIAAAKoAOJtxE2MycGEuaW5ncmVkaWVudC52MwAAAAAYYzJzaLFqGh+72GGJj/hjO6RIRXAAAABwY2JvcqNpZGM6Zm9ybWF0bWltYWdlL3N2Zyt4bWxqaW5zdGFuY2VJRHgseG1wOmlpZDo4ZDM4NmMwMC01ZWNjLTRkODMtYTYwZi1jNWQ5MDkyNzEyNDFscmVsYXRpb25zaGlwaHBhcmVudE9mAAAB4mp1bWIAAABBanVtZGNib3IAEQAQgAAAqgA4m3ETYzJwYS5hY3Rpb25zLnYyAAAAABhjMnNogDuwO7heT24u1FuvQfVI5QAAAZljYm9yomdhY3Rpb25zgqJmYWN0aW9ua2MycGEub3BlbmVkanBhcmFtZXRlcnOha2luZ3JlZGllbnRzgaJjdXJseC1zZWxmI2p1bWJmPWMycGEuYXNzZXJ0aW9ucy9jMnBhLmluZ3JlZGllbnQudjNkaGFzaFgg7lcpnacCLhkI7QmU1Bq6Z7bj0EryTQkiT9BvHOOJbIGkZmFjdGlvbngdY29tLmFudGhyb3BpYy5jbGF1ZGUucHJvdmlkZWRqcGFyYW1ldGVyc6F4H2NvbS5hbnRocm9waWMub3JpZ2luLWNvbmZpZGVuY2VndW5rbm93bmtkZXNjcmlwdGlvbnhmQ2xhdWRlIHByb3ZpZGVkIHRoaXMgZmlsZSBhdCB0aGUgcmVxdWVzdCBvZiBhIHVzZXIgYW5kIG1heSBoYXZlIGNyZWF0ZWQgb3IgbW9kaWZpZWQgdGhlIGZpbGUgY29udGVudHMubXNvZnR3YXJlQWdlbnShZG5hbWVmQ2xhdWRlcmFsbEFjdGlvbnNJbmNsdWRlZPUAAADIanVtYgAAAEBqdW1kY2JvcgARABCAAACqADibcRNjMnBhLmhhc2guZGF0YQAAAAAYYzJzaF8yiyWDTqRTFvgi6UR1Y/EAAACAY2JvcqVjYWxnZnNoYTI1NmNwYWRNAAAAAAAAAAAAAAAAAGRoYXNoWCBKY6gsZH+s84Pty0dikELAFQeOnB8r0cm5y78hoa+jMmRuYW1lbmp1bWJmIG1hbmlmZXN0amV4Y2x1c2lvbnOBomVzdGFydBiaZmxlbmd0aBkeBAAAAj5qdW1iAAAAJ2p1bWRjMmNsABEAEIAAAKoAOJtxA2MycGEuY2xhaW0udjIAAAACD2Nib3KlY2FsZ2ZzaGEyNTZpc2lnbmF0dXJleE1zZWxmI2p1bWJmPS9jMnBhL3VybjpjMnBhOjY3YjFmY2U4LTcyOTItNDc3My1iMjBkLTc0ZGVjMTE0YjY5Yi9jMnBhLnNpZ25hdHVyZWppbnN0YW5jZUlEeCx4bXA6aWlkOjYwMGQ4ZTBiLWNlNmUtNGZkMS1iMWMzLTJhZTU2ZjU0OWQ2NXJjcmVhdGVkX2Fzc2VydGlvbnODomN1cmx4LXNlbGYjanVtYmY9YzJwYS5hc3NlcnRpb25zL2MycGEuaW5ncmVkaWVudC52M2RoYXNoWCDuVymdpwIuGQjtCZTUGrpntuPQSvJNCSJP0G8c44lsgaJjdXJseCpzZWxmI2p1bWJmPWMycGEuYXNzZXJ0aW9ucy9jMnBhLmFjdGlvbnMudjJkaGFzaFggFGQCz7wMYVqPPuEZ8njiBI2Fx1DwNJpZHnEc/1e0o3WiY3VybHgpc2VsZiNqdW1iZj1jMnBhLmFzc2VydGlvbnMvYzJwYS5oYXNoLmRhdGFkaGFzaFggDZUnPNON2nIahEDHsPY97W71quIqAhUVCUcnXqygbdV0Y2xhaW1fZ2VuZXJhdG9yX2luZm+jZG5hbWVvQW50aHJvcGljIEZpbGVzZ3ZlcnNpb25lMS4wLjBrc3BlY1ZlcnNpb25lMi40LjAAABA4anVtYgAAAChqdW1kYzJjcwARABCAAACqADibcQNjMnBhLnNpZ25hdHVyZQAAABAIY2JvctKEWQISogEmGCFZAgowggIGMIIBjaADAgECAhRA5aAK7sI50L64g/oGQgU9Z1UTADAKBggqhkjOPQQDAzBJMRcwFQYDVQQKEw5BbnRocm9waWMsIFBCQzEuMCwGA1UEAxMlQW50aHJvcGljIENvbnRlbnQgQ3JlZGVudGlhbHMgUm9vdCBDQTAeFw0yNjA4MDcxODQzNTZaFw0yODA4MDYxOTQzNTZaMEQxFzAVBgNVBAoTDkFudGhyb3BpYywgUEJDMSkwJwYDVQQDEyBBbnRocm9waWMgQ2xhdWRlIENvbnRlbnQgU2lnbmluZzBZMBMGByqGSM49AgEGCCqGSM49AwEHA0IABJh6CmvLUBgFFNU0vUKlOVtE6djd17L5SuwX0LemFisBM3dkd/3cyjxFA3Qo5S46fX0/ihY0VZ7mfb9KF703t5OjWDBWMA4GA1UdDwEB/wQEAwIHgDAVBgNVHSUEDjAMBgorBgEEAYPoXgIBMAwGA1UdEwEB/wQCMAAwHwYDVR0jBBgwFoAUzlHiBIFOZFsj+OPEz5o+nMHXXMIwCgYIKoZIzj0EAwMDZwAwZAIwMXMdFJ4BetLLVY7ORuE9noqbbAZOZn/aArXyTwFAZfKrPzxF2vPoJNf1+UCdg1XGAjBwX1zd9WGqYkqmL5SFqw1QySjr1zJfpJM9+1rdDwSPLMOPOjKuiXjoU/pUUeG9RwmhY3BhZFkNngAAAAAAAAAAAAAAAAAAAAAAAAAAAAAAAAAAAAAAAAAAAAAAAAAAAAAAAAAAAAAAAAAAAAAAAAAAAAAAAAAAAAAAAAAAAAAAAAAAAAAAAAAAAAAAAAAAAAAAAAAAAAAAAAAAAAAAAAAAAAAAAAAAAAAAAAAAAAAAAAAAAAAAAAAAAAAAAAAAAAAAAAAAAAAAAAAAAAAAAAAAAAAAAAAAAAAAAAAAAAAAAAAAAAAAAAAAAAAAAAAAAAAAAAAAAAAAAAAAAAAAAAAAAAAAAAAAAAAAAAAAAAAAAAAAAAAAAAAAAAAAAAAAAAAAAAAAAAAAAAAAAAAAAAAAAAAAAAAAAAAAAAAAAAAAAAAAAAAAAAAAAAAAAAAAAAAAAAAAAAAAAAAAAAAAAAAAAAAAAAAAAAAAAAAAAAAAAAAAAAAAAAAAAAAAAAAAAAAAAAAAAAAAAAAAAAAAAAAAAAAAAAAAAAAAAAAAAAAAAAAAAAAAAAAAAAAAAAAAAAAAAAAAAAAAAAAAAAAAAAAAAAAAAAAAAAAAAAAAAAAAAAAAAAAAAAAAAAAAAAAAAAAAAAAAAAAAAAAAAAAAAAAAAAAAAAAAAAAAAAAAAAAAAAAAAAAAAAAAAAAAAAAAAAAAAAAAAAAAAAAAAAAAAAAAAAAAAAAAAAAAAAAAAAAAAAAAAAAAAAAAAAAAAAAAAAAAAAAAAAAAAAAAAAAAAAAAAAAAAAAAAAAAAAAAAAAAAAAAAAAAAAAAAAAAAAAAAAAAAAAAAAAAAAAAAAAAAAAAAAAAAAAAAAAAAAAAAAAAAAAAAAAAAAAAAAAAAAAAAAAAAAAAAAAAAAAAAAAAAAAAAAAAAAAAAAAAAAAAAAAAAAAAAAAAAAAAAAAAAAAAAAAAAAAAAAAAAAAAAAAAAAAAAAAAAAAAAAAAAAAAAAAAAAAAAAAAAAAAAAAAAAAAAAAAAAAAAAAAAAAAAAAAAAAAAAAAAAAAAAAAAAAAAAAAAAAAAAAAAAAAAAAAAAAAAAAAAAAAAAAAAAAAAAAAAAAAAAAAAAAAAAAAAAAAAAAAAAAAAAAAAAAAAAAAAAAAAAAAAAAAAAAAAAAAAAAAAAAAAAAAAAAAAAAAAAAAAAAAAAAAAAAAAAAAAAAAAAAAAAAAAAAAAAAAAAAAAAAAAAAAAAAAAAAAAAAAAAAAAAAAAAAAAAAAAAAAAAAAAAAAAAAAAAAAAAAAAAAAAAAAAAAAAAAAAAAAAAAAAAAAAAAAAAAAAAAAAAAAAAAAAAAAAAAAAAAAAAAAAAAAAAAAAAAAAAAAAAAAAAAAAAAAAAAAAAAAAAAAAAAAAAAAAAAAAAAAAAAAAAAAAAAAAAAAAAAAAAAAAAAAAAAAAAAAAAAAAAAAAAAAAAAAAAAAAAAAAAAAAAAAAAAAAAAAAAAAAAAAAAAAAAAAAAAAAAAAAAAAAAAAAAAAAAAAAAAAAAAAAAAAAAAAAAAAAAAAAAAAAAAAAAAAAAAAAAAAAAAAAAAAAAAAAAAAAAAAAAAAAAAAAAAAAAAAAAAAAAAAAAAAAAAAAAAAAAAAAAAAAAAAAAAAAAAAAAAAAAAAAAAAAAAAAAAAAAAAAAAAAAAAAAAAAAAAAAAAAAAAAAAAAAAAAAAAAAAAAAAAAAAAAAAAAAAAAAAAAAAAAAAAAAAAAAAAAAAAAAAAAAAAAAAAAAAAAAAAAAAAAAAAAAAAAAAAAAAAAAAAAAAAAAAAAAAAAAAAAAAAAAAAAAAAAAAAAAAAAAAAAAAAAAAAAAAAAAAAAAAAAAAAAAAAAAAAAAAAAAAAAAAAAAAAAAAAAAAAAAAAAAAAAAAAAAAAAAAAAAAAAAAAAAAAAAAAAAAAAAAAAAAAAAAAAAAAAAAAAAAAAAAAAAAAAAAAAAAAAAAAAAAAAAAAAAAAAAAAAAAAAAAAAAAAAAAAAAAAAAAAAAAAAAAAAAAAAAAAAAAAAAAAAAAAAAAAAAAAAAAAAAAAAAAAAAAAAAAAAAAAAAAAAAAAAAAAAAAAAAAAAAAAAAAAAAAAAAAAAAAAAAAAAAAAAAAAAAAAAAAAAAAAAAAAAAAAAAAAAAAAAAAAAAAAAAAAAAAAAAAAAAAAAAAAAAAAAAAAAAAAAAAAAAAAAAAAAAAAAAAAAAAAAAAAAAAAAAAAAAAAAAAAAAAAAAAAAAAAAAAAAAAAAAAAAAAAAAAAAAAAAAAAAAAAAAAAAAAAAAAAAAAAAAAAAAAAAAAAAAAAAAAAAAAAAAAAAAAAAAAAAAAAAAAAAAAAAAAAAAAAAAAAAAAAAAAAAAAAAAAAAAAAAAAAAAAAAAAAAAAAAAAAAAAAAAAAAAAAAAAAAAAAAAAAAAAAAAAAAAAAAAAAAAAAAAAAAAAAAAAAAAAAAAAAAAAAAAAAAAAAAAAAAAAAAAAAAAAAAAAAAAAAAAAAAAAAAAAAAAAAAAAAAAAAAAAAAAAAAAAAAAAAAAAAAAAAAAAAAAAAAAAAAAAAAAAAAAAAAAAAAAAAAAAAAAAAAAAAAAAAAAAAAAAAAAAAAAAAAAAAAAAAAAAAAAAAAAAAAAAAAAAAAAAAAAAAAAAAAAAAAAAAAAAAAAAAAAAAAAAAAAAAAAAAAAAAAAAAAAAAAAAAAAAAAAAAAAAAAAAAAAAAAAAAAAAAAAAAAAAAAAAAAAAAAAAAAAAAAAAAAAAAAAAAAAAAAAAAAAAAAAAAAAAAAAAAAAAAAAAAAAAAAAAAAAAAAAAAAAAAAAAAAAAAAAAAAAAAAAAAAAAAAAAAAAAAAAAAAAAAAAAAAAAAAAAAAAAAAAAAAAAAAAAAAAAAAAAAAAAAAAAAAAAAAAAAAAAAAAAAAAAAAAAAAAAAAAAAAAAAAAAAAAAAAAAAAAAAAAAAAAAAAAAAAAAAAAAAAAAAAAAAAAAAAAAAAAAAAAAAAAAAAAAAAAAAAAAAAAAAAAAAAAAAAAAAAAAAAAAAAAAAAAAAAAAAAAAAAAAAAAAAAAAAAAAAAAAAAAAAAAAAAAAAAAAAAAAAAAAAAAAAAAAAAAAAAAAAAAAAAAAAAAAAAAAAAAAAAAAAAAAAAAAAAAAAAAAAAAAAAAAAAAAAAAAAAAAAAAAAAAAAAAAAAAAAAAAAAAAAAAAAAAAAAAAAAAAAAAAAAAAAAAAAAAAAAAAAAAAAAAAAAAAAAAAAAAAAAAAAAAAAAAAAAAAAAAAAAAAAAAAAAAAAAAAAAAAAAAAAAAAAAAAAAAAAAAAAAAAAAAAAAAAAAAAAAAAAAAAAAAAAAAAAAAAAAAAAAAAAAAAAAAAAAAAAAAAAAAAAAAAAAAAAAAAAAAAAAAAAAAAAAAAAAAAAAAAAAAAAAAAAAAAAAAAAAAAAAAAAAAAAAAAAAAAAAAAAAAAAAAAAAAAAAAAAAAAAAAAAAAAAAAAAAAAAAAAAAAAAAAAAAAAAAAAAAAAAAAAAAAAAAAAAAAAAAAAAAAAAAAAAAAAAAAAAAAAAAAAAAAAAAAAAAAAAAAAAAAAAAAAAAAAAAAAAAAAAAAAAAAAAAAAAAAAAAAAAAAAAAAAAAAAAAAAAAAAAAAAAAAAAAAAAAAAAAAAAAAAAAAAAAAAAAAAAAAAAAAAAAAAAAAAAAAAAAAAAAAAAAAAAAAAAAAAAAAAAAAAAAAAAAAAAAAAAAAAAAAAAAAAAAAAAAAAAAAAAAAAAAAAAAAAAAAAAAAAAAAAAAAAAAAAAAAAAAAAAAAAAAAAAAAAAAAAAAAAAAAAAAAAAAAAAAAAAAAAAAAAAAAAAAAAAAAAAAAAAAAAAAAAAAAAAAAAAAAAAAAAAAAAAAAAAAAAAAAAAAAAAAAAAAAAAAAAAAAAAAAAAAAAAAAAAAAAAAAAAAAAAAAAAAAAAAAAAAAAAAAAAAAAAAAAAAAAAAAAAAAAAAAAAAAAAAAAAAAAAAAAAAAAAAAAAAAAAAAAAAAAAAAAAAAAAAAAAAAAAAAAAAAAAAAAAAAAAAAAAAAAAAAAAAAAAAAAAAAAAAAAAAAAAAAAAAAAAAAAAAAAAAAAAAAAAAAAAAAAAAAAAAAAAAAAAAAAAAAAAAAAAAAAAAAAAAAAAAAAAAAAAAAAAAAAAAAAAAAAAAAAAAAAAAAAAAAAAAAAAAAAAAAAAAAAAAAAAAAAAAAAAAAAAAAAAAAAAAAAAAAAAAAAAAAAAAAAAAAAAAAAAAAAAAAAAAAAAAAAAAAAAAAAAAAAAAAAAAAAAAAAAAAAAAAAAAAAAAAAAAAAAAAAAAAAAAAAAAAAAAAAAAAAAAAAAAAAAAAAAAAAAAAAAAAAAAAAAAAAAAAAAAAAAAAAAAAAAAAAAAAAAAAAAAAAAAAAAAAAAAAAAAAAAAAAAAAAAAAAAAAAAAAAAAAAAAAAAAAAAAAAAAAAAAAAAAAAAAAAAAAAAAAAAAAAAAAAAAAAAAAAAAAAAAAAAAAAAAAAAAAAAAAAAAAAAAAAAAAAAAAAAAAAAAAAAAAAAAAAAAAAAAAAAAAAAAAAAAAAAAAAAAAAAAAAAAAAAAAAAAAAAAAAAAAAAAAAAAAAAAAAAAAAAAAAAAAAAAAAAAAAAAAAAAAAAAAAAAAAAAAAAAAAAAAAAAAAAAAAAAAAAAAAAAAAAAAAAAAAAAAAAAAAAAAAAAAAAAAAAAAAAAAAAAAAAAPZYQDzp3BygLmbrOyDe+/usPLrZMW1WPKDD1Bds5prwV57UTydWWIeMzCfAeC4DCiIpBbbSDK11Jk7X5wY6uBXVzKs=</c2pa:manifest></metadata>

<defs><pattern id="cram-halftone-25" width="12" height="12" patternUnits="userSpaceOnUse" patternTransform="rotate(45)"><circle cx="6" cy="6" r="3.4" fill="#000000"></circle></pattern><pattern id="cram-halftone-10" width="12" height="12" patternUnits="userSpaceOnUse" patternTransform="rotate(45)"><circle cx="6" cy="6" r="2.1" fill="#000000"></circle></pattern></defs>
<rect width="1920" height="1080" fill="#FFFFFF"></rect><path d="M560 0L1360 0L1360 24L560 24Z" fill="#000000"></path><path d="M600 24L1320 24L1320 60L600 60Z" fill="#FFFFFF" stroke="#000000" stroke-width="16" stroke-linejoin="miter" stroke-linecap="square"></path><path d="M560 60L1360 60L1360 68L560 68Z" fill="#000000"></path><path d="M1280 130L1640 121L1650 480L1290 489Z" fill="#FFFFFF" stroke="#000000" stroke-width="16" stroke-linejoin="miter" stroke-linecap="square"></path><path d="M1282.5 190L1642.5 181" fill="none" stroke="#000000" stroke-width="16" stroke-linejoin="miter" stroke-linecap="square"></path><path d="M1284 250L1644 241" fill="none" stroke="#000000" stroke-width="16" stroke-linejoin="miter" stroke-linecap="square"></path><path d="M1286 310L1646 301" fill="none" stroke="#000000" stroke-width="16" stroke-linejoin="miter" stroke-linecap="square"></path><path d="M1287.5 370L1647.5 361" fill="none" stroke="#000000" stroke-width="16" stroke-linejoin="miter" stroke-linecap="square"></path><path d="M1289 430L1649 421" fill="none" stroke="#000000" stroke-width="16" stroke-linejoin="miter" stroke-linecap="square"></path><path d="M1370 128L1380 486" fill="none" stroke="#000000" stroke-width="4"></path><path d="M1460 125.5L1470 483.5" fill="none" stroke="#000000" stroke-width="4"></path><path d="M1550 123.5L1560 481.5" fill="none" stroke="#000000" stroke-width="4"></path><path d="M1400 152L1424 151.5L1424 157.5L1400 158Z" fill="#000000"></path><path d="M1560 142L1584 141.5L1584 147.5L1560 148Z" fill="#000000"></path><path d="M1306 206L1378 206L1378 238L1306 238Z" fill="#404040"></path><path d="M1486 196L1558 196L1558 228L1486 228Z" fill="#404040"></path><path d="M1396 326L1468 326L1468 358L1396 358Z" fill="#404040"></path><path d="M1576 316L1648 316L1648 348L1576 348Z" fill="#404040"></path><path d="M1306 386L1378 386L1378 418L1306 418Z" fill="#404040"></path><path d="M1486 380L1558 380L1558 412L1486 412Z" fill="#404040"></path><path d="M1290 489L1650 480L1658 524L1298 532Z" fill="url(#cram-halftone-25)"></path><path d="M0 780L1920 780L1920 1080L0 1080Z" fill="#E6E6E6"></path><path d="M0 772L1920 772L1920 788L0 788Z" fill="#000000"></path><path d="M0 820L1920 820L1920 1080L0 1080Z" fill="url(#cram-halftone-10)"></path><path d="M1360 780L1600 780L1640 860L1400 860Z" fill="#808080"></path><path d="M1380 560L1580 560L1580 780L1380 780Z" fill="#404040" stroke="#000000" stroke-width="16" stroke-linejoin="miter" stroke-linecap="square"></path><path d="M1580 600L1632 600L1632 720L1580 720Z" fill="#FFFFFF" stroke="#000000" stroke-width="16" stroke-linejoin="miter" stroke-linecap="square"></path><path d="M1420 520L1540 520L1540 560L1420 560Z" fill="#000000" stroke="#000000" stroke-width="16" stroke-linejoin="miter" stroke-linecap="square"></path><path d="M1400 700L1560 700L1560 724L1400 724Z" fill="#000000" stroke="#000000" stroke-width="16" stroke-linejoin="miter" stroke-linecap="square"></path><path d="M662 788L1002.5 788L1106 872L751 872Z" fill="#808080"></path><g transform="translate(440 125) scale(0.74)"><g></g>
<g><path d="M176 896L848 896L848 912L176 912Z" fill="#000000"></path></g>
<g><g><path d="M332 366L692 366L672 896L352 896Z" fill="#FFFFFF" stroke="#000000" stroke-width="16" stroke-linejoin="miter" stroke-linecap="square"></path></g><g><path d="M345 704L679 704L675.5 808L348.5 808Z" fill="#E6E6E6" stroke="#000000" stroke-width="16" stroke-linejoin="miter" stroke-linecap="square"></path><path d="M408 724L440 724L440 748L408 748Z" fill="#000000"></path><path d="M408 764L440 764L440 788L408 788Z" fill="#BFBFBF"></path><path d="M460 724L492 724L492 748L460 748Z" fill="#BFBFBF"></path><path d="M460 764L492 764L492 788L460 788Z" fill="#BFBFBF"></path><path d="M512 724L544 724L544 748L512 748Z" fill="#BFBFBF"></path><path d="M512 764L544 764L544 788L512 788Z" fill="#000000"></path><path d="M564 724L596 724L596 748L564 748Z" fill="#000000"></path><path d="M564 764L596 764L596 788L564 788Z" fill="#BFBFBF"></path><path d="M616 724L648 724L648 748L616 748Z" fill="#BFBFBF"></path><path d="M616 764L648 764L648 788L616 788Z" fill="#BFBFBF"></path></g><g><path d="M332 366A180 40 0 1 1 692 366A180 40 0 1 1 332 366Z" fill="#FFFFFF" stroke="#000000" stroke-width="16" stroke-linejoin="miter" stroke-linecap="square"></path><path d="M364 370A148 24 0 1 1 660 370A148 24 0 1 1 364 370Z" fill="#404040"></path></g><g><path d="M308 456L308.5 440L310.5 424L313 408.5L317 393L322 378L328.5 363.5L335.5 349.5L343.5 336L352.5 323.5L362.5 312L373 301L384.5 291L397 282L409.5 274L423 267.5L436.5 262L450.5 257.5L465 254.5L479.5 252.5L494 252L508.5 252.5L523 254.5L537.5 257.5L551.5 262L565 267.5L578.5 274L591 282L603.5 291L615 301L625.5 312L635.5 323.5L644.5 336L652.5 349.5L659.5 363.5L666 378L671 393L675 408.5L677.5 424L679.5 440L680 456L652 456L651.5 442L650 428.5L647.5 415L644.5 401.5L640 388.5L635 376L628.5 364L622 352.5L614 341.5L605.5 331.5L596.5 322L587 313.5L576.5 306L565.5 299L554.5 293.5L543 288.5L531 285L518.5 282L506.5 280.5L494 280L481.5 280.5L469.5 282L457 285L445 288.5L433.5 293.5L422.5 299L411.5 306L401 313.5L391.5 322L382.5 331.5L374 341.5L366 352.5L359.5 364L353 376L348 388.5L343.5 401.5L340.5 415L338 428.5L336.5 442L336 456Z" fill="#000000"></path><path d="M280 415L336 415L336 525L280 525Z" fill="#000000"></path><path d="M668 415L698 415L698 525L668 525Z" fill="#000000"></path></g></g>
<g><g><path d="M610.5 518A19.5 28 0 1 1 649.5 518A19.5 28 0 1 1 610.5 518Z" fill="#000000"></path><path d="M630.5 509A5 7 0 1 1 640.5 509A5 7 0 1 1 630.5 509Z" fill="#FFFFFF"></path></g><g><path d="M494 518A28 28 0 1 1 550 518A28 28 0 1 1 494 518Z" fill="#000000"></path><path d="M523 509A7 7 0 1 1 537 509A7 7 0 1 1 523 509Z" fill="#FFFFFF"></path></g><g><g display="none"><path d="M605 478L655 478L655 502.5L605 502.5Z" fill="#FFFFFF"></path><path d="M606 502.5L654 502.5" fill="none" stroke="#000000" stroke-width="16" stroke-linejoin="miter" stroke-linecap="square"></path></g><g><path d="M605 478L655 478L655 521L605 521Z" fill="#FFFFFF"></path><path d="M606 521L654 521" fill="none" stroke="#000000" stroke-width="16" stroke-linejoin="miter" stroke-linecap="square"></path></g><g display="none"><path d="M605 478L655 478L655 554L605 554Z" fill="#FFFFFF"></path><path d="M609 518L630 526L651 518" fill="none" stroke="#000000" stroke-width="16" stroke-linejoin="miter" stroke-linecap="square"></path></g></g><g><g display="none"><path d="M486 478L558 478L558 502.5L486 502.5Z" fill="#FFFFFF"></path><path d="M488 502.5L556 502.5" fill="none" stroke="#000000" stroke-width="16" stroke-linejoin="miter" stroke-linecap="square"></path></g><g><path d="M486 478L558 478L558 521L486 521Z" fill="#FFFFFF"></path><path d="M488 521L556 521" fill="none" stroke="#000000" stroke-width="16" stroke-linejoin="miter" stroke-linecap="square"></path></g><g display="none"><path d="M486 478L558 478L558 554L486 554Z" fill="#FFFFFF"></path><path d="M492 518L522 526L552 518" fill="none" stroke="#000000" stroke-width="16" stroke-linejoin="miter" stroke-linecap="square"></path></g></g><g><g display="none"><path d="M651 458L609 458" fill="none" stroke="#000000" stroke-width="16" stroke-linejoin="miter" stroke-linecap="square"></path></g><g display="none"><path d="M651 444L609 438" fill="none" stroke="#000000" stroke-width="16" stroke-linejoin="miter" stroke-linecap="square"></path></g><g><path d="M651 464L609 474" fill="none" stroke="#000000" stroke-width="16" stroke-linejoin="miter" stroke-linecap="square"></path></g><g display="none"><path d="M651 466L609 448" fill="none" stroke="#000000" stroke-width="16" stroke-linejoin="miter" stroke-linecap="square"></path></g></g><g><g display="none"><path d="M492 458L552 458" fill="none" stroke="#000000" stroke-width="16" stroke-linejoin="miter" stroke-linecap="square"></path></g><g display="none"><path d="M492 444L552 438" fill="none" stroke="#000000" stroke-width="16" stroke-linejoin="miter" stroke-linecap="square"></path></g><g><path d="M492 464L552 474" fill="none" stroke="#000000" stroke-width="16" stroke-linejoin="miter" stroke-linecap="square"></path></g><g display="none"><path d="M492 466L552 448" fill="none" stroke="#000000" stroke-width="16" stroke-linejoin="miter" stroke-linecap="square"></path></g></g><g><g display="none"><path d="M557.5 608L598.5 608" fill="none" stroke="#000000" stroke-width="16" stroke-linejoin="miter" stroke-linecap="square"></path></g><g display="none"><path d="M549 602Q578 634 607 602" fill="none" stroke="#000000" stroke-width="16" stroke-linejoin="miter" stroke-linecap="square"></path></g><g display="none"><path d="M552.5 600L603.5 600Q603.5 642 578 642Q552.5 642 552.5 600Z" fill="#000000" stroke="#000000" stroke-width="16" stroke-linejoin="miter" stroke-linecap="square"></path></g><g display="none"><path d="M552.5 608L565.5 598L578 608L591 598L603.5 608" fill="none" stroke="#000000" stroke-width="16" stroke-linejoin="miter" stroke-linecap="square"></path></g><g display="none"><path d="M566 614A12 18 0 1 1 590 614A12 18 0 1 1 566 614Z" fill="#000000"></path></g><g><path d="M544 612L612 612" fill="none" stroke="#000000" stroke-width="16" stroke-linejoin="miter" stroke-linecap="square"></path></g></g></g>
<g><g><path d="M350.5 629L269 596.5L260 618.5L341.5 651Z" fill="#FFFFFF" stroke="#000000" stroke-width="16" stroke-linejoin="miter" stroke-linecap="square"></path></g><g><path d="M694 651.5L785.5 618L777 595.5L686 628.5Z" fill="#FFFFFF" stroke="#000000" stroke-width="16" stroke-linejoin="miter" stroke-linecap="square"></path></g><g><path d="M226 580L266 580L266 620L226 620Z" fill="#FFFFFF" stroke="#000000" stroke-width="16" stroke-linejoin="miter" stroke-linecap="square"></path></g><g><path d="M780 580L820 580L820 620L780 620Z" fill="#FFFFFF" stroke="#000000" stroke-width="16" stroke-linejoin="miter" stroke-linecap="square"></path></g></g>
<g><g><g><path d="M146 640L294 640L306 648L306 668L146 764Z" fill="#000000" stroke="#000000" stroke-width="16" stroke-linejoin="miter" stroke-linecap="square"></path></g><g><path d="M146 764L306 668L306 830L306 830L302 836L298 830L294 836L290 830L286 836L282 830L278 836L274 830L270 836L266 830L262 836L258 830L254 836L250 830L246 836L242 830L238 836L234 830L230 836L226 830L222 836L218 830L214 836L210 830L206 836L202 830L198 836L194 830L190 836L186 830L182 836L178 830L174 836L170 830L166 836L162 830L158 836L154 830L150 836L146 830L146 830Z" fill="#BFBFBF" stroke="#000000" stroke-width="16" stroke-linejoin="miter" stroke-linecap="square"></path><path d="M230 777.5L230 764L230 764.5L230 765L230 765L229.5 765L229.5 765L230 765L230 764.5L230.5 764.5L231 764.5L231.5 764L232 763.5L233 763.5L233.5 763L234.5 763L235.5 762.5L236.5 762.5L237.5 762.5L238.5 762L240 762L241 762L242.5 761.5L243.5 761.5L244.5 761.5L246 761.5L247.5 761.5L248.5 761.5L249.5 761.5L251 762L252 762L253.5 762L254.5 762.5L255.5 762.5L256.5 762.5L257.5 763L258.5 763L259 763.5L260 763.5L260.5 764L261 764.5L261.5 764.5L262 764.5L262 765L262.5 765L262.5 765L262 765L262 765L262 764.5L262 764L262 766.5L262 768.5L262 771L262 773L262 775.5L262 778L262 780L262 780L261.5 780.5L259 782L256.5 784L254.5 786L252 787.5L249.5 789.5L247 791L244.5 793L242.5 795L240 796.5L237.5 798.5L235 800L232.5 802L230.5 804L228 805.5L225.5 807.5L231.5 815L233.5 813L236 811.5L238.5 809.5L241 808L243.5 806L245.5 804L248 802.5L250.5 800.5L253 799L255.5 797L257.5 795L260 793.5L262.5 791.5L265 790L267.5 788L271.5 785L271.5 780L271.5 778L271.5 775.5L271.5 773L271.5 771L271.5 768.5L271.5 766.5L271.5 764L271.5 762.5L271 761.5L270.5 760L270 759L269 758.5L268.5 757.5L267.5 757L266.5 756.5L265.5 755.5L264.5 755L263.5 755L262.5 754.5L261 754L260 753.5L258.5 753.5L257.5 753L256 753L254.5 752.5L253 752.5L252 752.5L250.5 752L249 752L247.5 752L246 752L244.5 752L243 752L241.5 752L240 752.5L239 752.5L237.5 752.5L236 753L234.5 753L233.5 753.5L232 753.5L231 754L229.5 754.5L228.5 755L227.5 755L226.5 755.5L225.5 756.5L224.5 757L223.5 757.5L223 758.5L222 759L221.5 760L221 761.5L220.5 762.5L220.5 764L220.5 777.5ZM220.5 806.5L271.5 806.5L271.5 816L220.5 816Z" fill="#000000"></path></g><g><path d="M146 602L150 596L154 602L158 596L162 602L166 596L170 602L174 596L178 602L182 596L186 602L190 596L194 602L198 596L202 602L206 596L210 602L214 596L218 602L222 596L226 602L230 596L234 602L238 596L242 602L246 596L250 602L254 596L258 602L262 596L266 602L270 596L274 602L278 596L282 602L286 596L290 602L294 596L298 602L302 596L306 602L306 632L294 640L146 640Z" fill="#000000" stroke="#000000" stroke-width="16" stroke-linejoin="miter" stroke-linecap="square"></path></g><g><path d="M306 632L294 640L306 648Z" fill="#FFFFFF"></path></g></g><g><path d="M791 452L809 452L809 620L791 620Z" fill="#000000"></path><path d="M770 432L830 432L830 454L770 454Z" fill="#000000"></path><path d="M770 400L782 400L782 436L770 436Z" fill="#000000"></path><path d="M786 400L798 400L798 436L786 436Z" fill="#000000"></path><path d="M802 400L814 400L814 436L802 436Z" fill="#000000"></path><path d="M818 400L830 400L830 436L818 436Z" fill="#000000"></path></g><g><path d="M300 500L346 500L350 780L304 780Z" fill="#404040" stroke="#000000" stroke-width="16" stroke-linejoin="miter" stroke-linecap="square"></path><path d="M380 420L400 420L400 720L380 720Z" fill="#404040" stroke="#000000" stroke-width="16" stroke-linejoin="miter" stroke-linecap="square"></path></g><g><g><path d="M786 782L850 782L850 888L786 888Z" fill="#000000" stroke="#000000" stroke-width="16" stroke-linejoin="miter" stroke-linecap="square"></path><path d="M796 794L840 794L840 864L796 864Z" fill="#E6E6E6"></path><path d="M802 834L824 834L824 846L802 846Z" fill="#000000"></path></g><g display="none"><path d="M786 782L850 782L850 888L786 888Z" fill="#000000" stroke="#000000" stroke-width="16" stroke-linejoin="miter" stroke-linecap="square"></path><path d="M796 794L840 794L840 864L796 864Z" fill="#FFFFFF"></path><path d="M802 834L824 834L824 846L802 846Z" fill="#000000"></path><path d="M768 802L768 826" fill="none" stroke="#000000" stroke-width="16" stroke-linejoin="miter" stroke-linecap="square"></path><path d="M752 810L752 834" fill="none" stroke="#000000" stroke-width="16" stroke-linejoin="miter" stroke-linecap="square"></path><path d="M868 802L868 826" fill="none" stroke="#000000" stroke-width="16" stroke-linejoin="miter" stroke-linecap="square"></path><path d="M884 810L884 834" fill="none" stroke="#000000" stroke-width="16" stroke-linejoin="miter" stroke-linecap="square"></path></g></g></g>
<g><g><path d="M447 350L452.5 343.5L457 336.5L460 330L461 323L460 316.5L457 309.5L452.5 303L447 296L442 289.5L437.5 282.5L434.5 276L433 269L434.5 262.5L437.5 255.5L442 249L447 242L452.5 235.5L457 228.5L460 222L461 215L460 208.5L457 201.5L452.5 195L447 188" fill="none" stroke="#808080" stroke-width="16" stroke-linejoin="round" stroke-linecap="round"></path></g><g><path d="M512 350L517.5 341L522 332L525 323L526 314L525 305L522 296L517.5 287L512 278L506.5 269L502 260L499 251L498 242L499 233L502 224L506.5 215L512 206L517.5 197L522 188L525 179L526 170L525 161L522 152L517.5 143L512 134" fill="none" stroke="#808080" stroke-width="16" stroke-linejoin="round" stroke-linecap="round"></path></g><g><path d="M577 350L582 344L586.5 338L589.5 332L591 326L589.5 320L586.5 314L582 308L577 302L571.5 296L567 290L564 284L563 278L564 272L567 266L571.5 260L577 254L582 248L586.5 242L589.5 236L591 230L589.5 224L586.5 218L582 212L577 206" fill="none" stroke="#808080" stroke-width="16" stroke-linejoin="round" stroke-linecap="round"></path></g><g><path d="M410 368L412.5 370L415 372L417.5 373L420 373.5L422.5 373.5L425 372.5L427.5 371L430 369.5L432.5 367.5L435 366L437.5 365L440 365L442.5 365.5L445 367L447.5 368.5L450 370.5L452.5 372.5L455 374.5L457.5 376L460 376.5L462.5 376L465 375L467.5 373.5L470 372" fill="none" stroke="#FFFFFF" stroke-width="16" stroke-linejoin="round" stroke-linecap="round"></path><path d="M490 376L493 377.5L496 378.5L499 379.5L501.5 379.5L504.5 378.5L507.5 377L510.5 375L513.5 372.5L516.5 370.5L519 368.5L522 367L525 366L528 366L531 366.5L534 368L536.5 369.5L539.5 371L542.5 372L545.5 372.5L548.5 372.5L551.5 372L554 370.5L557 368.5L560 366" fill="none" stroke="#FFFFFF" stroke-width="16" stroke-linejoin="round" stroke-linecap="round"></path><path d="M567 385L567.5 389L568 393L568.5 396.5L569 400L569 403.5L569.5 406.5L570 409L570.5 411.5L571 413.5L571.5 415.5L572 417L572.5 418.5L573 419.5L573.5 420.5L573.5 422L574 423.5L574.5 425L574.5 427.5L575 430L575.5 432.5L576 436L576 439.5L576.5 443.5L577 447L599 445L598.5 441L598 437L597.5 433.5L597 430L597 426.5L596.5 423.5L596 421L595.5 418.5L595 416.5L594.5 414.5L594 413L593.5 411.5L593 410.5L592.5 409.5L592.5 408L592 406.5L591.5 405L591.5 402.5L591 400L590.5 397.5L590 394L590 390.5L589.5 386.5L589 383Z" fill="#FFFFFF" stroke="#000000" stroke-width="16" stroke-linejoin="miter" stroke-linecap="square"></path></g></g>
<g><g><path d="M550 755.5L550 742L550 742.5L550 743L550 743L549.5 743L549.5 743L550 743L550 742.5L550.5 742.5L551 742.5L551.5 742L552 741.5L553 741.5L553.5 741L554.5 741L555.5 740.5L556.5 740.5L557.5 740.5L558.5 740L560 740L561 740L562.5 739.5L563.5 739.5L564.5 739.5L566 739.5L567.5 739.5L568.5 739.5L569.5 739.5L571 740L572 740L573.5 740L574.5 740.5L575.5 740.5L576.5 740.5L577.5 741L578.5 741L579 741.5L580 741.5L580.5 742L581 742.5L581.5 742.5L582 742.5L582 743L582.5 743L582.5 743L582 743L582 743L582 742.5L582 742L582 744.5L582 746.5L582 749L582 751L582 753.5L582 756L582 758L582 758L581.5 758.5L579 760L576.5 762L574.5 764L572 765.5L569.5 767.5L567 769L564.5 771L562.5 773L560 774.5L557.5 776.5L555 778L552.5 780L550.5 782L548 783.5L545.5 785.5L551.5 793L553.5 791L556 789.5L558.5 787.5L561 786L563.5 784L565.5 782L568 780.5L570.5 778.5L573 777L575.5 775L577.5 773L580 771.5L582.5 769.5L585 768L587.5 766L591.5 763L591.5 758L591.5 756L591.5 753.5L591.5 751L591.5 749L591.5 746.5L591.5 744.5L591.5 742L591.5 740.5L591 739.5L590.5 738L590 737L589 736.5L588.5 735.5L587.5 735L586.5 734.5L585.5 733.5L584.5 733L583.5 733L582.5 732.5L581 732L580 731.5L578.5 731.5L577.5 731L576 731L574.5 730.5L573 730.5L572 730.5L570.5 730L569 730L567.5 730L566 730L564.5 730L563 730L561.5 730L560 730.5L559 730.5L557.5 730.5L556 731L554.5 731L553.5 731.5L552 731.5L551 732L549.5 732.5L548.5 733L547.5 733L546.5 733.5L545.5 734.5L544.5 735L543.5 735.5L543 736.5L542 737L541.5 738L541 739.5L540.5 740.5L540.5 742L540.5 755.5ZM540.5 784.5L591.5 784.5L591.5 794L540.5 794Z" fill="#000000"></path></g></g>
<g display="none"><circle cx="512" cy="896" r="0"></circle><circle cx="512" cy="631" r="0"></circle><circle cx="512" cy="366" r="0"></circle><circle cx="630" cy="518" r="0"></circle><circle cx="522" cy="518" r="0"></circle><circle cx="578" cy="608" r="0"></circle><circle cx="690" cy="640" r="0"></circle><circle cx="346" cy="640" r="0"></circle><circle cx="781" cy="607" r="0"></circle><circle cx="264.5" cy="607.5" r="0"></circle><circle cx="800" cy="600" r="0"></circle><circle cx="246" cy="600" r="0"></circle><circle cx="512" cy="366" r="0"></circle><circle cx="294" cy="640" r="0"></circle><circle cx="860" cy="518" r="0"></circle></g>
</g>
</svg>